<svg xmlns="http://www.w3.org/2000/svg" xmlns:xlink="http://www.w3.org/1999/xlink" width="128" zoomAndPan="magnify" viewBox="0 0 96 95.999999" height="128" preserveAspectRatio="xMidYMid meet" version="1.0"><defs><g/><clipPath id="b3d3b44b55"><path d="M 3.230469 0 L 92.480469 0 L 92.480469 95.996094 L 3.230469 95.996094 Z M 3.230469 0 " clip-rule="nonzero"/></clipPath></defs><g clip-path="url(#b3d3b44b55)"><path fill="#26343d" d="M 47.84375 19.695312 C 50.617188 19.695312 53.125 20.824219 54.945312 22.644531 C 56.761719 24.46875 57.882812 26.988281 57.882812 29.765625 C 57.882812 32.546875 56.761719 35.066406 54.945312 36.890625 C 53.125 38.710938 50.617188 39.839844 47.84375 39.839844 C 45.070312 39.839844 42.5625 38.710938 40.746094 36.890625 C 38.929688 35.066406 37.804688 32.546875 37.804688 29.765625 C 37.804688 26.984375 38.929688 24.46875 40.746094 22.644531 C 42.5625 20.824219 45.070312 19.695312 47.84375 19.695312 Z M 29.675781 78.628906 C 29.136719 78.628906 28.699219 78.191406 28.699219 77.652344 C 28.699219 77.109375 29.136719 76.671875 29.675781 76.671875 L 66.011719 76.671875 C 66.550781 76.671875 66.988281 77.109375 66.988281 77.652344 C 66.988281 78.191406 66.550781 78.628906 66.011719 78.628906 Z M 29.675781 68.128906 C 29.136719 68.128906 28.699219 67.691406 28.699219 67.148438 C 28.699219 66.609375 29.136719 66.167969 29.675781 66.167969 L 62.746094 66.167969 C 63.285156 66.167969 63.722656 66.609375 63.722656 67.148438 C 63.722656 67.691406 63.285156 68.128906 62.746094 68.128906 Z M 29.675781 57.625 C 29.136719 57.625 28.699219 57.1875 28.699219 56.648438 C 28.699219 56.105469 29.136719 55.667969 29.675781 55.667969 L 52.605469 55.667969 C 53.144531 55.667969 53.582031 56.105469 53.582031 56.648438 C 53.582031 57.1875 53.144531 57.625 52.605469 57.625 Z M 29.675781 47.125 C 29.136719 47.125 28.699219 46.6875 28.699219 46.144531 C 28.699219 45.605469 29.136719 45.167969 29.675781 45.167969 L 50.742188 45.167969 C 51.28125 45.167969 51.71875 45.605469 51.71875 46.144531 C 51.71875 46.6875 51.28125 47.125 50.742188 47.125 Z M 57.652344 47.601562 L 58.300781 46.949219 C 58.832031 46.417969 59.457031 46.058594 60.140625 45.875 C 60.820312 45.691406 61.542969 45.691406 62.265625 45.886719 L 63.367188 46.179688 C 64.355469 46.445312 65.335938 46.449219 66.246094 46.203125 C 67.152344 45.960938 68 45.46875 68.722656 44.742188 L 71.519531 41.933594 C 71.28125 40.796875 71.3125 39.609375 71.601562 38.476562 C 71.933594 37.191406 72.601562 35.972656 73.601562 34.972656 C 74.472656 34.09375 75.507812 33.472656 76.605469 33.109375 L 76.605469 12.964844 L 19.082031 12.964844 L 19.082031 85.910156 L 76.605469 85.910156 L 76.605469 48.875 L 74.722656 50.761719 C 74 51.488281 73.507812 52.335938 73.265625 53.246094 C 73.019531 54.160156 73.023438 55.140625 73.289062 56.132812 L 73.582031 57.238281 C 73.777344 57.960938 73.777344 58.6875 73.59375 59.371094 C 73.410156 60.054688 73.050781 60.683594 72.519531 61.214844 L 71.875 61.863281 C 72.199219 62.25 72.179688 62.828125 71.820312 63.191406 L 69.144531 65.875 C 68.761719 66.257812 68.144531 66.257812 67.761719 65.875 L 53.65625 51.722656 C 53.277344 51.339844 53.277344 50.722656 53.65625 50.339844 L 56.332031 47.65625 C 56.695312 47.292969 57.269531 47.273438 57.652344 47.601562 Z M 78.558594 32.730469 C 78.714844 32.71875 78.875 32.714844 79.03125 32.714844 C 79.820312 32.714844 80.605469 32.835938 81.363281 33.078125 L 81.363281 8.445312 L 23.84375 8.445312 L 23.84375 11.003906 L 77.582031 11.003906 C 78.121094 11.003906 78.558594 11.441406 78.558594 11.984375 Z M 83.316406 34.023438 L 83.316406 7.464844 C 83.316406 6.921875 82.878906 6.484375 82.339844 6.484375 L 60.863281 6.484375 L 57.761719 0.53125 C 57.515625 0.0546875 56.925781 -0.128906 56.449219 0.121094 L 44.3125 6.484375 L 22.867188 6.484375 C 22.328125 6.484375 21.890625 6.921875 21.890625 7.464844 L 21.890625 11.003906 L 18.109375 11.003906 C 17.570312 11.003906 17.132812 11.441406 17.132812 11.984375 L 17.132812 20.738281 L 3.742188 27.757812 C 3.269531 28.007812 3.082031 28.597656 3.332031 29.074219 L 17.132812 55.554688 L 17.132812 86.890625 C 17.132812 87.433594 17.566406 87.871094 18.109375 87.871094 L 33.972656 87.871094 L 37.925781 95.460938 C 38.175781 95.9375 38.761719 96.121094 39.238281 95.871094 L 54.496094 87.871094 L 77.582031 87.871094 C 78.121094 87.871094 78.558594 87.433594 78.558594 86.890625 L 78.558594 83.351562 L 82.339844 83.351562 C 82.878906 83.351562 83.316406 82.914062 83.316406 82.371094 L 83.316406 72.757812 L 91.945312 68.234375 C 92.421875 67.984375 92.605469 67.394531 92.355469 66.917969 L 83.316406 49.570312 L 83.316406 46.8125 C 83.722656 46.539062 84.105469 46.226562 84.460938 45.867188 C 85.960938 44.363281 86.710938 42.390625 86.710938 40.417969 C 86.710938 38.449219 85.960938 36.476562 84.460938 34.972656 C 84.105469 34.613281 83.722656 34.296875 83.316406 34.023438 Z M 81.363281 47.757812 L 81.363281 81.394531 L 78.558594 81.394531 L 78.558594 48.097656 C 79.363281 48.152344 80.179688 48.074219 80.96875 47.871094 C 81.101562 47.835938 81.234375 47.796875 81.363281 47.757812 Z M 59.683594 48.335938 C 59.964844 48.050781 60.292969 47.855469 60.644531 47.761719 C 60.996094 47.667969 61.375 47.671875 61.761719 47.773438 L 62.863281 48.070312 C 64.1875 48.425781 65.511719 48.425781 66.746094 48.09375 C 67.988281 47.761719 69.132812 47.097656 70.101562 46.125 L 73.285156 42.933594 C 73.566406 42.652344 73.640625 42.242188 73.507812 41.890625 C 73.246094 40.9375 73.238281 39.925781 73.488281 38.964844 C 73.730469 38.015625 74.230469 37.109375 74.980469 36.355469 C 75.78125 35.550781 76.761719 35.035156 77.792969 34.808594 L 77.800781 34.804688 L 77.804688 34.804688 C 78.207031 34.71875 78.621094 34.671875 79.03125 34.671875 C 80.496094 34.671875 81.964844 35.234375 83.082031 36.355469 C 84.199219 37.476562 84.757812 38.949219 84.757812 40.417969 C 84.757812 41.890625 84.199219 43.359375 83.082031 44.484375 C 82.71875 44.84375 82.324219 45.148438 81.902344 45.394531 C 81.871094 45.410156 81.84375 45.425781 81.8125 45.445312 C 81.386719 45.683594 80.9375 45.863281 80.480469 45.980469 C 79.625 46.203125 78.734375 46.222656 77.875 46.035156 C 77.828125 46.019531 77.777344 46.007812 77.726562 46 C 77.644531 45.980469 77.566406 45.960938 77.488281 45.9375 C 77.136719 45.835938 76.769531 45.941406 76.527344 46.183594 L 73.34375 49.375 C 72.375 50.347656 71.710938 51.496094 71.378906 52.742188 C 71.046875 53.984375 71.050781 55.308594 71.402344 56.636719 L 71.699219 57.742188 C 71.800781 58.128906 71.804688 58.511719 71.710938 58.863281 C 71.617188 59.214844 71.425781 59.542969 71.140625 59.828125 L 70.496094 60.476562 L 59.035156 48.980469 Z M 69.75 62.496094 L 68.453125 63.796875 L 55.726562 51.03125 L 57.023438 49.730469 Z M 50.300781 87.871094 L 39.199219 93.691406 L 36.164062 87.871094 Z M 17.132812 51.34375 L 5.507812 29.035156 L 17.132812 22.941406 Z M 83.316406 53.78125 L 90.183594 66.957031 L 83.316406 70.554688 Z M 48.511719 6.484375 L 56.488281 2.300781 L 58.671875 6.484375 Z M 43.734375 30.964844 L 46.386719 33.210938 C 46.796875 33.558594 47.410156 33.507812 47.757812 33.097656 L 52.082031 27.683594 C 52.421875 27.261719 52.355469 26.648438 51.933594 26.308594 C 51.515625 25.96875 50.902344 26.039062 50.566406 26.457031 L 46.878906 31.070312 L 44.992188 29.472656 C 44.582031 29.125 43.96875 29.175781 43.621094 29.589844 C 43.273438 30 43.324219 30.617188 43.734375 30.964844 Z M 53.5625 24.03125 C 52.101562 22.5625 50.078125 21.65625 47.84375 21.65625 C 45.609375 21.65625 43.589844 22.5625 42.125 24.03125 C 40.664062 25.5 39.757812 27.527344 39.757812 29.765625 C 39.757812 32.007812 40.664062 34.035156 42.125 35.503906 C 43.589844 36.972656 45.609375 37.878906 47.84375 37.878906 C 50.078125 37.878906 52.097656 36.972656 53.5625 35.503906 C 55.027344 34.035156 55.929688 32.007812 55.929688 29.765625 C 55.933594 27.527344 55.027344 25.5 53.5625 24.03125 Z M 53.5625 24.03125 " fill-opacity="1" fill-rule="evenodd"/></g><g fill="#ffffff" fill-opacity="1"><g transform="translate(0.182216, 94.899995)"><g><path d="M 1.65625 0 L 1.59375 -0.3125 L 1.578125 -0.3125 C 1.472656 -0.175781 1.367188 -0.0820312 1.265625 -0.03125 C 1.160156 0.0195312 1.023438 0.046875 0.859375 0.046875 C 0.648438 0.046875 0.484375 -0.0078125 0.359375 -0.125 C 0.242188 -0.238281 0.1875 -0.394531 0.1875 -0.59375 C 0.1875 -1.019531 0.53125 -1.242188 1.21875 -1.265625 L 1.578125 -1.28125 L 1.578125 -1.421875 C 1.578125 -1.585938 1.539062 -1.707031 1.46875 -1.78125 C 1.40625 -1.863281 1.289062 -1.90625 1.125 -1.90625 C 0.945312 -1.90625 0.75 -1.851562 0.53125 -1.75 L 0.421875 -2 C 0.523438 -2.050781 0.640625 -2.09375 0.765625 -2.125 C 0.890625 -2.15625 1.019531 -2.171875 1.15625 -2.171875 C 1.40625 -2.171875 1.59375 -2.113281 1.71875 -2 C 1.84375 -1.894531 1.90625 -1.71875 1.90625 -1.46875 L 1.90625 0 Z M 0.921875 -0.234375 C 1.128906 -0.234375 1.289062 -0.285156 1.40625 -0.390625 C 1.519531 -0.503906 1.578125 -0.660156 1.578125 -0.859375 L 1.578125 -1.046875 L 1.25 -1.046875 C 0.988281 -1.035156 0.800781 -0.992188 0.6875 -0.921875 C 0.582031 -0.847656 0.53125 -0.738281 0.53125 -0.59375 C 0.53125 -0.46875 0.5625 -0.375 0.625 -0.3125 C 0.695312 -0.257812 0.796875 -0.234375 0.921875 -0.234375 Z M 0.921875 -0.234375 "/></g></g></g><g fill="#ffffff" fill-opacity="1"><g transform="translate(2.404659, 94.899995)"><g><path d="M 0.65625 -2.140625 L 0.65625 -0.75 C 0.65625 -0.570312 0.691406 -0.441406 0.765625 -0.359375 C 0.847656 -0.273438 0.972656 -0.234375 1.140625 -0.234375 C 1.367188 -0.234375 1.53125 -0.289062 1.625 -0.40625 C 1.726562 -0.53125 1.78125 -0.734375 1.78125 -1.015625 L 1.78125 -2.140625 L 2.109375 -2.140625 L 2.109375 0 L 1.84375 0 L 1.796875 -0.28125 L 1.78125 -0.28125 C 1.71875 -0.175781 1.625 -0.09375 1.5 -0.03125 C 1.382812 0.0195312 1.25 0.046875 1.09375 0.046875 C 0.832031 0.046875 0.640625 -0.015625 0.515625 -0.140625 C 0.390625 -0.265625 0.328125 -0.460938 0.328125 -0.734375 L 0.328125 -2.140625 Z M 0.65625 -2.140625 "/></g></g></g><g fill="#ffffff" fill-opacity="1"><g transform="translate(4.857345, 94.899995)"><g><path d="M 1.03125 -0.234375 C 1.09375 -0.234375 1.148438 -0.234375 1.203125 -0.234375 C 1.253906 -0.242188 1.296875 -0.253906 1.328125 -0.265625 L 1.328125 -0.015625 C 1.296875 -0.00390625 1.242188 0.00390625 1.171875 0.015625 C 1.109375 0.0351562 1.046875 0.046875 0.984375 0.046875 C 0.578125 0.046875 0.375 -0.171875 0.375 -0.609375 L 0.375 -1.890625 L 0.0625 -1.890625 L 0.0625 -2.046875 L 0.375 -2.1875 L 0.5 -2.640625 L 0.6875 -2.640625 L 0.6875 -2.140625 L 1.3125 -2.140625 L 1.3125 -1.890625 L 0.6875 -1.890625 L 0.6875 -0.625 C 0.6875 -0.5 0.71875 -0.398438 0.78125 -0.328125 C 0.84375 -0.265625 0.925781 -0.234375 1.03125 -0.234375 Z M 1.03125 -0.234375 "/></g></g></g></svg>