<?xml version="1.0" encoding="UTF-8"?>
<svg version="1.1" xmlns="http://www.w3.org/2000/svg" width="512" height="512">
<path d="M0 0 C2.28093919 -0.00542589 4.56187487 -0.01255116 6.84280396 -0.02124023 C13.0142028 -0.03941972 19.18533309 -0.03242839 25.35673642 -0.01972389 C31.82628663 -0.00956965 38.29581445 -0.01899619 44.7653656 -0.02526855 C56.32190889 -0.03300242 67.87833004 -0.02060324 79.43485408 -0.00023121 C89.8975476 0.017642 100.36006358 0.01452943 110.82275391 -0.00390625 C122.99622501 -0.02534659 135.1695569 -0.03326252 147.34305042 -0.0214572 C153.77857946 -0.01523139 160.2139864 -0.01436175 166.64950752 -0.02760315 C172.69974656 -0.03918325 178.74965124 -0.031096 184.79985428 -0.00802612 C187.01614897 -0.00275087 189.23247194 -0.00423244 191.44875526 -0.01307678 C194.4819243 -0.02406232 197.51403234 -0.01023193 200.5471344 0.00964355 C201.41709362 0.00072067 202.28705284 -0.00820222 203.18337446 -0.0173955 C214.02856671 0.11976727 222.89913041 4.83798251 230.43139648 12.44726562 C236.94102575 19.99346006 240.40444681 29.9152541 239.90014648 39.91992188 C238.20414685 51.54713589 233.85665685 60.40086099 224.70874023 67.83007812 C217.07090116 73.0219046 209.70185527 75.1198487 200.53367615 75.01878357 C199.58001429 75.02431797 198.62635244 75.02985236 197.64379174 75.03555447 C194.4756347 75.04907429 191.30827736 75.03423884 188.14013672 75.01928711 C185.85772367 75.0230734 183.57531291 75.02857599 181.29290771 75.03565979 C175.11324237 75.04959023 168.93385619 75.03846166 162.75420642 75.02194858 C156.27884895 75.0080707 149.80350724 75.01456122 143.32814026 75.01808167 C132.45634378 75.02078142 121.58466037 75.00741582 110.71289062 74.98413086 C99.54162494 74.96020735 88.37050545 74.95313001 77.19921875 74.96362305 C63.71416116 74.9762668 50.22921568 74.97372708 36.74415779 74.95796394 C31.60202517 74.95221282 26.45994148 74.95227996 21.31780815 74.95702934 C15.26106269 74.96180903 9.20451899 74.95165609 3.14781189 74.93007469 C0.92787417 74.92452046 -1.29208298 74.92402897 -3.51202202 74.92902756 C-6.54763008 74.93500454 -9.58262627 74.9224287 -12.61817932 74.90525818 C-13.9285106 74.91427325 -13.9285106 74.91427325 -15.26531321 74.92347044 C-26.03519751 74.81307574 -33.73520095 71.07359216 -41.39282227 63.66601562 C-49.54038597 54.96372418 -51.86529768 45.87713484 -51.75610352 34.19335938 C-50.93288378 23.28279922 -45.47486916 15.18406817 -37.79125977 7.76757812 C-26.59607691 -1.20133197 -13.60359636 -0.05434099 0 0 Z M-23.47875977 28.51757812 C-26.5134438 32.76613577 -26.75915665 36.1582754 -26.48657227 41.17382812 C-24.8371069 45.00979409 -21.9920118 47.33313844 -18.47875977 49.51757812 C-15.34662759 50.3412421 -12.36104868 50.32606847 -9.13548279 50.27275085 C-8.21493593 50.28140523 -7.29438907 50.29005961 -6.34594685 50.29897624 C-3.27168438 50.3205096 -0.1992422 50.29929895 2.875 50.27807617 C5.08302676 50.28457141 7.29104725 50.29363387 9.49905396 50.30506897 C15.48874007 50.32813973 21.47778858 50.31343698 27.4674542 50.29059958 C33.73603803 50.27168147 40.00457913 50.28284214 46.2731781 50.289505 C57.47301641 50.29625071 68.67262064 50.27349724 79.87238842 50.2385656 C90.02261135 50.20766638 100.17250568 50.20530639 110.32275391 50.22436523 C123.37642857 50.24884763 136.42990513 50.24789154 149.48359489 50.22559547 C154.46635988 50.21760734 159.4489737 50.21960359 164.43173409 50.22961998 C170.29814824 50.24016591 176.16399828 50.22605842 182.03032303 50.19287682 C184.18378223 50.18466467 186.33729308 50.18495934 188.49074745 50.19435501 C191.42944668 50.20576912 194.36638786 50.18642277 197.3049469 50.15922546 C198.58476412 50.1749327 198.58476412 50.1749327 199.89043623 50.19095725 C204.05382254 50.11911832 206.70899891 49.78647411 210.00741482 47.12591267 C213.61576837 43.38190039 214.55324671 41.27793448 214.45874023 36.08007812 C213.28317015 31.61291181 211.72459426 29.79906274 208.52124023 26.51757812 C205.18620442 24.85006022 201.43974807 25.37346791 197.77250671 25.37713623 C196.85552641 25.37416511 195.93854611 25.37119399 194.99377853 25.36813283 C191.90225602 25.35941872 188.81077212 25.3579353 185.71923828 25.35644531 C183.51033444 25.35181906 181.3014314 25.34679466 179.0925293 25.34140015 C173.07804132 25.32825562 167.06356451 25.3218272 161.0490644 25.31738949 C157.29445033 25.31446208 153.53983934 25.31035792 149.78522682 25.30588531 C139.39247512 25.29377347 128.99972558 25.28339241 118.60696697 25.28001022 C117.94158249 25.27979066 117.27619801 25.27957109 116.59065037 25.27934487 C115.59016567 25.27901746 115.59016567 25.27901746 114.56946915 25.27868342 C113.21786225 25.27823996 111.86625534 25.27779339 110.51464844 25.27734375 C109.84420267 25.27712232 109.1737569 25.27690089 108.48299459 25.27667275 C97.61947086 25.27272478 86.75601421 25.25527146 75.8925164 25.23198423 C64.74259766 25.20827571 53.59270339 25.19606663 42.44275695 25.19464231 C36.18107954 25.19359248 29.91949669 25.18764694 23.65784264 25.16982269 C17.76868352 25.15338549 11.87969049 25.15116535 5.99051666 25.1599617 C3.8269462 25.16073441 1.66336696 25.15635874 -0.5001812 25.14650345 C-3.45001225 25.13385282 -6.39924893 25.13962334 -9.34907532 25.15008545 C-10.20861024 25.14202904 -11.06814516 25.13397264 -11.95372659 25.1256721 C-16.62065769 25.16447954 -19.69424145 25.48288398 -23.47875977 28.51757812 Z " fill="#000000" transform="translate(253.478759765625,218.482421875)"/>
<path d="M0 0 C2.17271092 -0.0024313 4.34542071 -0.00615389 6.51812744 -0.01106262 C12.3898622 -0.02042777 18.26142899 -0.01108361 24.13315058 0.00226951 C30.2917192 0.0136284 36.4502801 0.00947314 42.6088562 0.00752258 C52.94662198 0.00664114 63.284322 0.01768974 73.62207031 0.03613281 C85.56001927 0.05730928 97.49787202 0.06080699 109.43583596 0.05457085 C120.94109177 0.04886937 132.44631384 0.05453141 143.95156479 0.0657444 C148.83887229 0.07037883 153.72615907 0.07126926 158.61346817 0.06915855 C164.37061992 0.06727003 170.12767423 0.07542292 175.88480377 0.09121895 C177.99305951 0.09544821 180.10132515 0.09632153 182.20958328 0.09352875 C185.09572995 0.09028647 187.98158917 0.09943995 190.8677063 0.11161804 C191.69418297 0.10783872 192.52065964 0.10405939 193.37218106 0.10016555 C204.76117862 0.18469191 215.12120884 2.66664787 223.74951172 10.4855957 C231.86935368 19.20802334 234.76971824 27.43498192 235.41748047 39.37231445 C234.93791666 48.80373606 231.15913939 58.63065553 224.41748047 65.37231445 C215.3691853 72.69946652 207.2441948 75.84301783 195.63282776 75.75326538 C194.688893 75.75794535 193.74495824 75.76262532 192.77241939 75.76744711 C189.63125547 75.77934705 186.49053187 75.76995936 183.34936523 75.76049805 C181.08842719 75.76456599 178.82749114 75.76990912 176.56655884 75.77642822 C170.4405329 75.7900818 164.31465887 75.78481096 158.18863034 75.77529097 C151.76978735 75.76768335 145.35095716 75.77474313 138.93211365 75.77944946 C127.46268818 75.78525336 115.99334664 75.77594297 104.52393537 75.76067145 C94.13970205 75.74727249 83.75556939 75.74959499 73.37133789 75.76342773 C61.29385316 75.77950866 49.21644438 75.78544407 37.13894504 75.77659094 C30.75258941 75.77192106 24.366303 75.77127073 17.97995186 75.78120041 C11.97411472 75.78988647 5.96846704 75.783818 -0.0373497 75.76651764 C-2.23751957 75.76256141 -4.43770546 75.76367199 -6.63786888 75.77030563 C-9.64908663 75.77854539 -12.65970336 75.76817 -15.67088318 75.75326538 C-16.53442474 75.75995755 -17.39796631 75.76664971 -18.2876758 75.77354467 C-29.38173985 75.66757526 -37.63202785 72.24979397 -45.49267578 64.4855957 C-54.13665689 55.14422334 -56.1670928 46.25044745 -55.92236328 33.7824707 C-55.46894918 25.02461745 -51.63363033 17.39121918 -45.58251953 11.1184082 C-32.27302509 -0.50140433 -16.67690494 -0.06553459 0 0 Z M-29.14111328 29.9855957 C-31.1721381 33.91224368 -32.35080942 36.85861136 -31.58251953 41.37231445 C-29.24426135 45.78902436 -27.10864262 48.28190881 -22.58251953 50.37231445 C-19.57164232 50.80331275 -16.59315107 50.78149606 -13.55567932 50.75999451 C-12.64500842 50.76538004 -11.73433751 50.77076558 -10.79607052 50.77631432 C-7.7437111 50.79062501 -4.69178345 50.78348243 -1.6394043 50.77636719 C0.54861806 50.78206911 2.73663743 50.78903268 4.9246521 50.79716492 C10.86882696 50.81513084 16.81285449 50.81392147 22.75704837 50.80822253 C27.71745974 50.8051357 32.67784261 50.8112175 37.63824993 50.81726128 C50.00837776 50.83211997 62.37843334 50.82848349 74.7485599 50.81639797 C85.48838862 50.80646561 96.22804507 50.81940622 106.96784722 50.84333216 C117.99923492 50.86772229 129.03053845 50.8769315 140.06195217 50.87067944 C146.2537674 50.86730529 152.44544027 50.86975546 158.63723564 50.88693047 C164.45919775 50.90237431 170.28083041 50.89847225 176.10277939 50.87962532 C178.24012628 50.8759324 180.37749744 50.87906829 182.51482201 50.88951111 C185.4314821 50.90267427 188.34704403 50.89121464 191.26365662 50.8735199 C192.53384735 50.88792741 192.53384735 50.88792741 193.8296985 50.90262598 C199.1533302 50.83612435 202.20218714 49.91863947 206.41748047 46.37231445 C208.77058979 42.9565106 209.41748047 41.02774106 209.41748047 36.87231445 C208.14190522 32.40780108 206.73576632 30.61518472 203.41748047 27.37231445 C198.90044291 24.91569466 194.55525942 25.08889961 189.54922485 25.11161804 C188.65559372 25.10779249 187.76196259 25.10396695 186.84125173 25.10002548 C183.84658196 25.08970602 180.85210429 25.09368565 177.85742188 25.09765625 C175.71043215 25.09330918 173.56344399 25.08812605 171.41645813 25.08216858 C165.58380814 25.0687664 159.7512229 25.0682013 153.9185605 25.07073188 C149.05020607 25.07180082 144.18186478 25.06692015 139.31351316 25.06212646 C127.82830218 25.05102692 116.34312391 25.0505963 104.85791016 25.05664062 C93.00807409 25.06268095 81.15835675 25.05036887 69.30854094 25.02907056 C59.13600807 25.01145895 48.963513 25.00545253 38.79096544 25.0087083 C32.71483469 25.01052209 26.63878862 25.00787535 20.56267166 24.99399376 C14.84827959 24.98142739 9.13407265 24.98334837 3.41968346 24.99640465 C1.32306926 24.99877261 -0.77355792 24.9960279 -2.87015724 24.98778152 C-5.73375222 24.97733108 -8.59672404 24.98540128 -11.46029663 24.99809265 C-12.70277241 24.98703122 -12.70277241 24.98703122 -13.97034872 24.97574633 C-19.60796058 25.02825606 -25.01900652 25.71885361 -29.14111328 29.9855957 Z " fill="#000000" transform="translate(259.58251953125,43.627685546875)"/>
<path d="M0 0 C1.42096912 -0.00807831 1.42096912 -0.00807831 2.87064469 -0.01631981 C6.02328309 -0.03054915 9.17549863 -0.02350801 12.32815552 -0.01637268 C14.59732397 -0.02207888 16.86648956 -0.02904411 19.13565063 -0.03717041 C25.28446201 -0.05508968 31.43313057 -0.05393563 37.5819602 -0.04822803 C42.72104419 -0.04513425 47.86010082 -0.05123078 52.99918091 -0.05726677 C65.81890183 -0.07210857 78.6385227 -0.06850196 91.45823969 -0.05640347 C102.57272588 -0.04647416 113.68704552 -0.05940934 124.80150603 -0.08333766 C136.23420477 -0.10776425 147.66679668 -0.11692863 159.09952652 -0.11068493 C165.50997504 -0.10731823 171.92028598 -0.10971154 178.33071518 -0.12693596 C184.3603979 -0.14243068 190.38976329 -0.13842113 196.41943359 -0.11963081 C198.62724879 -0.11595191 200.83508764 -0.11903292 203.04288101 -0.1295166 C217.68491146 -0.19371433 229.32596219 0.19794461 240.9536438 10.10643005 C248.5793198 17.90572039 252.02860584 27.61106528 252.18411255 38.38768005 C251.31876468 49.62117743 246.69356731 59.87744157 238.18411255 67.38768005 C224.80472915 77.03627385 208.58824949 75.68023422 192.87112427 75.64646912 C190.73929729 75.64918357 188.60747125 75.65274705 186.47564697 75.65708923 C180.71963979 75.66616028 174.96370478 75.66269117 169.20769644 75.65633106 C163.1670472 75.65124492 157.12640389 75.65596963 151.08575439 75.65910339 C140.94649147 75.66273488 130.80725775 75.65796483 120.66799927 75.64842224 C108.96351594 75.63753341 97.25910227 75.64106971 85.55462062 75.65207505 C75.48292632 75.66116422 65.41125294 75.66242541 55.33955586 75.65719771 C49.33386095 75.65408774 43.32819873 75.65364202 37.32250595 75.66027069 C31.6769702 75.66606745 26.03152391 75.66200468 20.38599777 75.65048218 C18.32008513 75.6478483 16.25416489 75.64857883 14.18825531 75.65300751 C-16.40723144 75.71252548 -16.40723144 75.71252548 -29.18307495 64.18455505 C-37.31911698 55.23101597 -39.44127149 45.21429351 -39.1166687 33.39549255 C-38.44955975 21.73893032 -32.46526968 14.32513699 -23.9916687 6.7587738 C-16.8672127 1.19538741 -8.81109157 -0.06093925 0 0 Z M-13.81588745 31.38768005 C-15.37966722 35.97373007 -15.44842204 39.8579252 -13.31588745 44.26268005 C-11.26963698 47.91417875 -7.65192148 49.19676816 -3.81588745 50.38768005 C-0.77110374 50.79499301 2.23102755 50.79344317 5.29960632 50.76863098 C6.19565187 50.77331095 7.09169742 50.77799093 8.01489586 50.78281271 C11.00577988 50.79474178 13.99620395 50.78531361 16.98709106 50.77586365 C19.13599921 50.77993024 21.28490527 50.78527261 23.43380737 50.79179382 C29.26217446 50.80546188 35.09038211 50.80017101 40.91875196 50.79065657 C47.01916764 50.78305837 53.11956973 50.79010594 59.21998596 50.79481506 C69.46318003 50.80027172 79.70630919 50.79308289 89.94949341 50.77879333 C101.79258122 50.76246269 113.63551412 50.76775877 125.47859818 50.78427255 C135.64776452 50.79788474 145.81688423 50.7998085 155.98605675 50.79195654 C162.05932431 50.78727914 168.13251905 50.78665718 174.20578194 50.79656601 C179.91446311 50.8052296 185.62294443 50.79922468 191.331604 50.78188324 C193.42702337 50.77791537 195.52245955 50.77905757 197.61787224 50.78567123 C200.47734296 50.79386465 203.33617258 50.78359159 206.19560242 50.76863098 C207.02546821 50.77532315 207.855334 50.78201531 208.71034724 50.78891027 C214.78813147 50.72719916 219.01002682 49.50300671 223.49661255 45.13768005 C225.59304708 41.72126822 226.11382919 39.39383155 226.18411255 35.38768005 C224.78978187 31.7624203 223.25642127 28.81992446 220.18411255 26.38768005 C216.24228291 25.07373684 212.47643983 25.2327021 208.36654663 25.22705078 C206.99803657 25.21941905 206.99803657 25.21941905 205.60187984 25.21163315 C202.53196155 25.19588454 199.46206684 25.18737727 196.39212036 25.17893982 C194.19616546 25.16940341 192.00021208 25.15951234 189.80426025 25.14929199 C182.58193754 25.117886 175.35960322 25.09763966 168.13723755 25.0790863 C166.90918113 25.07578898 165.68112471 25.07249166 164.41585445 25.06909442 C152.83807475 25.03831583 141.26029248 25.0116036 129.68248367 24.99467564 C127.00138592 24.99072621 124.32028825 24.9867232 121.63919067 24.98265076 C120.97282564 24.9816424 120.30646061 24.98063403 119.6199027 24.97959512 C108.82560947 24.96258877 98.0315455 24.92147891 87.2373642 24.87062777 C76.15295279 24.81883921 65.06863662 24.79021427 53.98410296 24.78247875 C47.76136531 24.77751782 41.53903529 24.76239393 35.31641388 24.72273445 C29.4623967 24.68591582 23.60902078 24.67744314 17.75490952 24.69074059 C15.60666974 24.69068656 13.45840188 24.68035927 11.3102684 24.65898895 C8.37594052 24.6313584 5.44395964 24.6407935 2.50961304 24.65942383 C1.23590878 24.63423143 1.23590878 24.63423143 -0.06352687 24.6085301 C-6.10329637 24.70429063 -10.07556103 26.5108839 -13.81588745 31.38768005 Z " fill="#000000" transform="translate(242.81588745117188,392.61231994628906)"/>
<path d="M0 0 C3.54296197 2.80831838 6.80170054 5.80717708 10 9 C10.6496875 9.63808594 11.299375 10.27617187 11.96875 10.93359375 C22.27252226 21.8022658 26.9955632 37.23681634 27.5 52 C26.85816233 70.78444918 19.390889 86.07732391 6 99 C-0.01896176 104.52328256 -6.38803967 108.08136914 -14 111 C-14.7940625 111.32097656 -15.588125 111.64195312 -16.40625 111.97265625 C-31.35326859 117.05748061 -48.76313413 114.90308869 -62.9453125 108.71484375 C-69.9442837 105.21535815 -75.48597467 100.5045835 -81 95 C-81.6496875 94.36191406 -82.299375 93.72382813 -82.96875 93.06640625 C-94.2685975 81.14704956 -98.44323455 64.70017322 -98.27734375 48.6640625 C-96.84981881 29.80464844 -88.39023462 15.45221529 -74.67578125 2.8671875 C-69.295114 -1.59577169 -63.50630288 -4.50530802 -57 -7 C-56.2059375 -7.32097656 -55.411875 -7.64195312 -54.59375 -7.97265625 C-36.8094825 -14.02268396 -15.32587587 -10.4095934 0 0 Z M-63 26 C-69.37388396 34.0851602 -73.73724694 43.19275968 -73.27734375 53.66015625 C-72.04958573 64.01828381 -68.21164836 73.23708873 -60.4140625 80.36328125 C-50.04657842 88.3058776 -41.03120711 90.20456536 -28 89 C-18.23909411 86.92950481 -10.30843476 81.69699313 -4.625 73.5 C1.00152529 64.33546574 3.56146972 55.15160963 1.50390625 44.41015625 C-1.16137475 34.63745926 -6.64970901 25.76503464 -15.3125 20.3125 C-16.21613281 19.73113281 -17.11976562 19.14976562 -18.05078125 18.55078125 C-32.89864477 10.74336162 -51.4166605 14.19810692 -63 26 Z " fill="#000000" transform="translate(117,204)"/>
<path d="M0 0 C14.35041856 10.42551776 21.8490346 26.2366987 24.59765625 43.41015625 C26.28430975 59.9924238 21.2276622 76.03554385 11.42578125 89.36328125 C0.49681181 101.99747996 -13.59318299 111.27175151 -30.59375 112.57861328 C-48.18820959 113.44456794 -64.55090348 110.28600113 -78.29858398 98.49804688 C-91.79523592 86.23497139 -98.91973538 71.30856232 -100.72265625 53.19140625 C-101.31410921 37.26160653 -95.70933089 20.9205132 -85.5625 8.6328125 C-62.04205039 -15.56815645 -27.7859621 -18.38843346 0 0 Z M-64.80859375 23.625 C-71.64329154 31.2805316 -76.17292442 41.55493895 -75.75 51.92578125 C-74.0229924 64.26709401 -68.9732896 72.95295993 -59.5546875 80.87109375 C-50.32108461 87.47370634 -40.42264595 88.19732069 -29.40234375 87.41015625 C-20.20466065 85.3468922 -12.35310032 79.61020331 -7.02734375 71.91015625 C-1.4014997 62.74673159 1.10186783 53.63232971 -0.86328125 42.890625 C-3.52312845 32.95531341 -8.7110439 24.13156469 -17.40234375 18.41015625 C-33.58402048 9.91091267 -50.94117391 10.83688406 -64.80859375 23.625 Z " fill="#000000" transform="translate(119.40234375,379.58984375)"/>
<path d="M0 0 C14.35041856 10.42551776 21.8490346 26.2366987 24.59765625 43.41015625 C26.28430975 59.9924238 21.2276622 76.03554385 11.42578125 89.36328125 C0.49681181 101.99747996 -13.59318299 111.27175151 -30.59375 112.57861328 C-48.18820959 113.44456794 -64.55090348 110.28600113 -78.29858398 98.49804688 C-91.79523592 86.23497139 -98.91973538 71.30856232 -100.72265625 53.19140625 C-101.31410921 37.26160653 -95.70933089 20.9205132 -85.5625 8.6328125 C-62.04205039 -15.56815645 -27.7859621 -18.38843346 0 0 Z M-64.80859375 23.625 C-71.64329154 31.2805316 -76.17292442 41.55493895 -75.75 51.92578125 C-74.0229924 64.26709401 -68.9732896 72.95295993 -59.5546875 80.87109375 C-50.32108461 87.47370634 -40.42264595 88.19732069 -29.40234375 87.41015625 C-20.20466065 85.3468922 -12.35310032 79.61020331 -7.02734375 71.91015625 C-1.4014997 62.74673159 1.10186783 53.63232971 -0.86328125 42.890625 C-3.52312845 32.95531341 -8.7110439 24.13156469 -17.40234375 18.41015625 C-33.58402048 9.91091267 -50.94117391 10.83688406 -64.80859375 23.625 Z " fill="#000000" transform="translate(119.40234375,31.58984375)"/>
</svg>
