<?xml version="1.0" encoding="UTF-8"?>
<svg version="1.1" xmlns="http://www.w3.org/2000/svg" width="512" height="512">
<path d="M0 0 C1.72597224 -0.00230791 3.45194349 -0.00548664 5.17791271 -0.00945449 C9.89351804 -0.01776571 14.6090419 -0.01369398 19.32464743 -0.00748205 C24.42083366 -0.00294348 29.51700621 -0.00994828 34.6131897 -0.01544189 C44.58587826 -0.02432255 54.55853667 -0.02241979 64.5312264 -0.01661661 C72.63820089 -0.01209491 80.74516694 -0.01148942 88.85214233 -0.01366425 C90.00715278 -0.01397071 91.16216322 -0.01427718 92.35217398 -0.01459293 C94.6987528 -0.0152324 97.04533162 -0.01588083 99.39191043 -0.01653811 C121.38186995 -0.02223752 143.37181278 -0.01568962 165.36176956 -0.00493738 C184.21913402 0.00399777 203.07647387 0.00244562 221.93383789 -0.0067749 C243.8465646 -0.0174844 265.75927669 -0.02168823 287.67200565 -0.01555037 C290.00982221 -0.01491329 292.34763876 -0.01428455 294.68545532 -0.01366425 C295.83562502 -0.01335569 296.98579471 -0.01304714 298.17081803 -0.01272924 C306.26552411 -0.01100435 314.3602209 -0.01391298 322.45492554 -0.01862335 C332.32326664 -0.02423973 342.19157593 -0.02269979 352.0599134 -0.01206186 C357.09226338 -0.00681537 362.12456038 -0.00473099 367.15690994 -0.01136017 C371.76834997 -0.01734289 376.37968817 -0.01400632 380.99111903 -0.00340506 C382.65448806 -0.00118086 384.3178658 -0.00228516 385.98122919 -0.00715664 C404.08142266 -0.05607796 418.95020025 1.77751728 432.57739258 14.83599854 C442.24646263 25.50472289 444.23538295 37.16075354 444.20239258 51.15240479 C444.20763443 52.46375397 444.21287628 53.77510315 444.21827698 55.12619019 C444.22715395 57.88795683 444.22484824 60.64943349 444.21484375 63.41119385 C444.20337058 66.91660179 444.22356644 70.42099976 444.25276089 73.92627525 C444.27572787 77.31420123 444.26864683 80.70190333 444.26489258 84.08990479 C444.27612656 85.33089935 444.28736053 86.57189392 444.29893494 87.85049438 C444.19085565 101.53856479 440.20438985 112.51431863 430.66723633 122.44146729 C426.15635936 126.64949386 421.37117589 129.82264973 416.05004883 132.91021729 C405.97292314 138.84605845 400.46393493 148.65873033 397.42895508 159.73443604 C394.67448416 174.4195147 397.25350065 188.3254755 405.72583008 200.75396729 C410.4980807 206.59381508 416.47929978 210.57595112 422.95629883 214.31646729 C433.44914653 220.4414003 439.72434664 229.69718409 443.11984253 241.27140808 C444.33478707 246.8552109 444.21581441 252.46003053 444.20239258 258.15240479 C444.20763443 259.46375397 444.21287628 260.77510315 444.21827698 262.12619019 C444.22715395 264.88795683 444.22484824 267.64943349 444.21484375 270.41119385 C444.20337058 273.91660179 444.22356644 277.42099976 444.25276089 280.92627525 C444.27572787 284.31420123 444.26864683 287.70190333 444.26489258 291.08990479 C444.27612656 292.33089935 444.28736053 293.57189392 444.29893494 294.85049438 C444.19000653 308.64610424 440.10700318 319.36088926 430.70239258 329.47662354 C417.37418187 342.23260337 400.97019148 342.55898924 383.53759766 342.50793457 C381.81162542 342.51024248 380.08565416 342.51342121 378.35968494 342.51738906 C373.64407962 342.52570028 368.92855576 342.52162855 364.21295023 342.51541662 C359.116764 342.51087805 354.02059144 342.51788285 348.92440796 342.52337646 C338.9517194 342.53225712 328.97906099 342.53035437 319.00637126 342.52455118 C310.89939677 342.52002948 302.79243071 342.51942399 294.68545532 342.52159882 C293.53044488 342.52190528 292.37543443 342.52221175 291.18542367 342.5225275 C288.83884485 342.52316697 286.49226604 342.5238154 284.14568722 342.52447268 C262.15572771 342.53017209 240.16578488 342.52362419 218.1758281 342.51287195 C199.31846363 342.5039368 180.46112379 342.50548895 161.60375977 342.51470947 C139.69103306 342.52541897 117.77832096 342.5296228 95.865592 342.52348495 C93.52777545 342.52284787 91.18995889 342.52221912 88.85214233 342.52159882 C87.70197264 342.52129026 86.55180295 342.52098171 85.36677963 342.52066381 C77.27207355 342.51893892 69.17737676 342.52184755 61.08267212 342.52655792 C51.21433102 342.5321743 41.34602173 342.53063436 31.47768426 342.51999643 C26.44533428 342.51474994 21.41303727 342.51266556 16.38068771 342.51929474 C11.76924768 342.52527746 7.15790949 342.52194089 2.54647863 342.51133963 C0.88310959 342.50911543 -0.78026814 342.51021973 -2.44363153 342.51509121 C-20.54382501 342.56401253 -35.4126026 340.73041729 -49.03979492 327.67193604 C-58.70886498 317.00321168 -60.69778529 305.34718103 -60.66479492 291.35552979 C-60.67003677 290.0441806 -60.67527863 288.73283142 -60.68067932 287.38174438 C-60.6895563 284.61997774 -60.68725059 281.85850108 -60.67724609 279.09674072 C-60.66577293 275.59133278 -60.68596878 272.08693481 -60.71516323 268.58165932 C-60.73813021 265.19373334 -60.73104918 261.80603124 -60.72729492 258.41802979 C-60.7385289 257.17703522 -60.74976288 255.93604065 -60.76133728 254.65744019 C-60.65345218 240.99396303 -56.68386914 230.01657608 -47.16479492 220.10162354 C-43.24947417 216.45246054 -39.15906747 213.4980287 -34.60620117 210.69146729 C-24.31959821 204.32152068 -16.83352255 195.15888796 -13.70385742 183.27740479 C-11.47042881 168.9908449 -12.88568095 155.31352399 -21.54370117 143.34381104 C-25.83592176 138.02821378 -30.14377399 133.71822825 -36.10620117 130.31646729 C-47.99917729 123.52832245 -55.72103988 114.34972687 -59.57853699 101.23899841 C-60.79945502 95.65499606 -60.67821969 90.04915245 -60.66479492 84.35552979 C-60.67003677 83.0441806 -60.67527863 81.73283142 -60.68067932 80.38174438 C-60.6895563 77.61997774 -60.68725059 74.85850108 -60.67724609 72.09674072 C-60.66577293 68.59133278 -60.68596878 65.08693481 -60.71516323 61.58165932 C-60.73813021 58.19373334 -60.73104918 54.80603124 -60.72729492 51.41802979 C-60.7385289 50.17703522 -60.74976288 48.93604065 -60.76133728 47.65744019 C-60.65240888 33.86183033 -56.56940552 23.14704531 -47.16479492 13.03131104 C-33.83658421 0.2753312 -17.43259382 -0.05105467 0 0 Z M-30.10620117 34.06646729 C-34.57481464 40.76938749 -34.5391923 47.33486524 -34.53198242 55.15631104 C-34.53626755 56.19284317 -34.54055267 57.22937531 -34.54496765 58.2973175 C-34.55069099 60.48167188 -34.55122599 62.6660453 -34.546875 64.85040283 C-34.54371462 68.17731472 -34.56720144 71.50333697 -34.5925293 74.83013916 C-34.59480257 76.95969534 -34.59550566 79.08925389 -34.59448242 81.21881104 C-34.60369217 82.20550278 -34.61290192 83.19219452 -34.62239075 84.20878601 C-34.58024403 90.55433709 -34.22715269 96.90638166 -29.77461243 101.8815155 C-26.34880142 105.05642582 -22.40387683 107.43319349 -18.48120117 109.94146729 C-2.77929345 120.30472638 6.46732991 134.37492434 11.76879883 152.25396729 C12.01500977 153.06994385 12.2612207 153.88592041 12.51489258 154.72662354 C17.2544835 173.78304773 12.89787276 194.78125369 2.9753418 211.41998291 C-0.44660265 216.62144926 -4.75505029 220.96185784 -9.23120117 225.25396729 C-9.93374023 225.9410376 -10.6362793 226.62810791 -11.36010742 227.33599854 C-14.80910224 230.53415737 -18.33933976 232.97594872 -22.41870117 235.31646729 C-27.60322323 238.31887099 -30.86821773 241.15860212 -33.33740234 246.76617432 C-34.56587565 251.5599382 -34.5365034 256.12859372 -34.53198242 261.05865479 C-34.53626755 262.09660187 -34.54055267 263.13454895 -34.54496765 264.20394897 C-34.55069698 266.39427971 -34.55122154 268.58462946 -34.546875 270.77496338 C-34.54371841 274.11074594 -34.56718074 277.44563819 -34.5925293 280.78131104 C-34.59480289 282.91542451 -34.59550551 285.04954035 -34.59448242 287.18365479 C-34.60369217 288.17348358 -34.61290192 289.16331238 -34.62239075 290.18313599 C-34.57396287 297.49946435 -33.46117699 303.55501604 -28.98120117 309.56646729 C-24.00260274 314.43191575 -19.20049908 315.5921272 -12.45835876 315.62722778 C-11.19168114 315.61104904 -11.19168114 315.61104904 -9.89941406 315.59454346 C-8.53725769 315.59520058 -8.53725769 315.59520058 -7.14758301 315.59587097 C-4.16611729 315.59379219 -1.18522409 315.57050413 1.79614258 315.54693604 C3.87121778 315.54133685 5.94629697 315.53706827 8.02137756 315.53407288 C13.46793678 315.52264957 18.91425385 315.49320395 24.36071777 315.45996094 C29.92444585 315.42920585 35.48821327 315.41555592 41.05200195 315.40045166 C51.95770697 315.36833191 62.86323272 315.31716594 73.76879883 315.25396729 C73.78338135 314.5886499 73.79796387 313.92333252 73.81298828 313.237854 C73.88781248 310.20099615 73.98435898 307.16519638 74.08129883 304.12896729 C74.10385742 303.08224854 74.12641602 302.03552979 74.1496582 300.95709229 C74.34335016 295.39285059 74.53429686 291.00050149 77.76879883 286.25396729 C81.29604836 283.65052121 84.04575852 283.01865476 88.33129883 283.25396729 C91.43203252 283.77075623 92.96174774 284.37302087 95.70629883 286.06646729 C100.07469396 292.8176234 99.86285901 300.82855559 99.81176758 308.66412354 C99.80556396 309.90428223 99.79936035 311.14444092 99.79296875 312.42218018 C99.78499268 313.35666992 99.7770166 314.29115967 99.76879883 315.25396729 C138.23301041 315.34552422 176.69720558 315.41600672 215.16150409 315.4582286 C219.70264027 315.46323143 224.24377624 315.46840871 228.78491211 315.47369385 C230.1409988 315.47526771 230.1409988 315.47526771 231.52448118 315.47687337 C246.16255919 315.49427825 260.80057435 315.5258164 275.43861508 315.56257847 C290.45877462 315.59998556 305.47890125 315.62220265 320.49910545 315.63032126 C329.76727629 315.63580952 339.03526951 315.65314322 348.30338567 315.68563315 C354.6590217 315.70677818 361.0145659 315.71316736 367.37023455 315.70797279 C371.03707996 315.70541098 374.70361499 315.70933595 378.3704052 315.73078918 C382.34828833 315.75389224 386.32576805 315.74591281 390.30371094 315.73498535 C391.45936554 315.74663672 392.61502014 315.75828808 393.80569458 315.77029252 C401.03972651 315.7165186 406.73717556 314.81768476 412.28602505 309.91282868 C418.22904866 303.47262808 418.07737667 295.84949999 418.06958008 287.60552979 C418.0738652 286.59356537 418.07815033 285.58160095 418.08256531 284.53897095 C418.08828829 282.40589137 418.08882391 280.27279229 418.08447266 278.13970947 C418.0813156 274.89620265 418.10478794 271.65361138 418.13012695 268.41021729 C418.13240061 266.32948926 418.13310313 264.2487588 418.13208008 262.16802979 C418.1458947 260.72854477 418.1458947 260.72854477 418.1599884 259.25997925 C418.11609425 252.79295479 417.71704946 245.67966903 413.31221008 240.56149292 C409.90014449 237.40491124 405.91956151 235.06578864 402.01879883 232.56646729 C385.47875596 221.65003899 374.73662456 205.40173181 370.45629883 186.06646729 C367.36657422 165.68616843 370.81196066 145.03282208 382.95629883 128.06646729 C384.71514899 125.75255593 386.41524662 123.5948075 388.50708008 121.57818604 C389.99873721 120.31748342 389.99873721 120.31748342 389.76879883 118.25396729 C390.34243164 117.99099854 390.91606445 117.72802979 391.50708008 117.45709229 C393.90607782 116.1809415 395.84477244 114.71164983 397.95629883 113.00396729 C401.07256148 110.52535574 404.22342946 108.26780817 407.58129883 106.12896729 C412.78326688 102.69421835 415.69321781 99.50886772 417.35848999 93.3821106 C418.17512064 89.14650342 418.0736333 84.87012238 418.06958008 80.57037354 C418.0738652 79.55603745 418.07815033 78.54170135 418.08256531 77.49662781 C418.08828783 75.35935205 418.08882425 73.22205682 418.08447266 71.08477783 C418.08131225 67.83028691 418.10480009 64.57670545 418.13012695 61.32232666 C418.13240024 59.23834342 418.13310331 57.15435776 418.13208008 55.07037354 C418.1458947 53.62314659 418.1458947 53.62314659 418.1599884 52.14668274 C418.11085772 44.90755197 416.95113546 38.88531753 412.51879883 32.94146729 C405.95547125 26.52730624 399.14853632 26.82739844 390.42396545 26.89320374 C389.18066812 26.89064046 387.93737078 26.88807719 386.65639776 26.88543624 C383.21734389 26.88135709 379.77880505 26.89070212 376.33981359 26.90577042 C372.62688247 26.91874896 368.91396671 26.91434004 365.20101929 26.9120636 C358.77208263 26.91049201 352.34323745 26.91988921 345.91432381 26.93677711 C336.61925636 26.9611781 327.32423307 26.96897351 318.02913707 26.97274109 C302.94778507 26.97930385 287.8664818 26.99926025 272.78515625 27.02764893 C258.13672123 27.05519404 243.48829945 27.07642541 228.83984375 27.08917236 C227.93662315 27.08996053 227.03340256 27.0907487 226.10281164 27.09156076 C221.57153258 27.09547593 217.04025342 27.09926704 212.50897419 27.10299647 C174.92888133 27.13408691 137.34884388 27.18691793 99.76879883 27.25396729 C99.7767749 28.26572021 99.78475098 29.27747314 99.79296875 30.31988525 C99.79942168 31.67030755 99.80567746 33.0207308 99.81176758 34.37115479 C99.82040833 35.36731812 99.82040833 35.36731812 99.82922363 36.38360596 C99.85338672 43.54906075 99.72940837 50.28334676 95.70629883 56.37896729 C91.75078985 58.90376025 88.43294183 59.52542534 83.76879883 59.25396729 C80.01287967 58.07154829 78.36250462 57.12521265 76.14770508 53.87506104 C74.1892838 48.7321247 74.19899593 43.84011298 74.08129883 38.37896729 C74.04713867 37.30904541 74.01297852 36.23912354 73.9777832 35.13677979 C73.89567385 32.50928039 73.82640259 29.88209912 73.76879883 27.25396729 C61.78133721 27.16116357 49.79396149 27.09014945 37.80621338 27.0467186 C32.23941328 27.02587076 26.67285952 26.99760401 21.10620117 26.95220947 C15.73102405 26.90865222 10.35608344 26.88480909 4.98074341 26.87445831 C2.93307779 26.86708471 0.88542467 26.85268577 -1.16213989 26.83104706 C-4.03700427 26.801882 -6.91089945 26.79801678 -9.78588867 26.79986572 C-10.62674515 26.78548462 -11.46760162 26.77110352 -12.3339386 26.75628662 C-19.35971942 26.80497181 -25.27233296 28.78268107 -30.10620117 34.06646729 Z " fill="#000000" transform="translate(64.231201171875,84.74603271484375)"/>
<path d="M0 0 C4.38410756 2.19205378 7.13092657 4.43115383 9 9 C9.68971802 15.2074622 8.75921175 18.01781438 5 23 C3.08307337 25.18236018 1.04584036 27.22887311 -1.01460266 29.27529907 C-1.6133636 29.87788556 -2.21212453 30.48047204 -2.82902974 31.10131872 C-4.82701701 33.10958529 -6.83203752 35.11067395 -8.8371582 37.11181641 C-10.27505536 38.5540628 -11.71253463 39.99672593 -13.14962769 41.43977356 C-17.04785281 45.3513762 -20.95244618 49.25656216 -24.85863137 53.16021395 C-28.12089435 56.42140651 -31.38017432 59.68557231 -34.63950604 62.94969404 C-42.3291808 70.65045939 -50.02416649 78.34588939 -57.72241211 86.03808594 C-65.66092544 93.97055722 -73.59021331 101.91216537 -81.51505214 109.85829604 C-88.32336162 116.68422328 -95.1374662 123.50432722 -101.95621747 130.31982362 C-106.02696591 134.38875956 -110.09546008 138.45988654 -114.15834999 142.53667068 C-117.97903575 146.3699331 -121.80691133 150.19586754 -125.64040756 154.01631737 C-127.04462828 155.41817254 -128.44630427 156.82258216 -129.84520912 158.22974205 C-131.75808115 160.15308444 -133.68001004 162.06690664 -135.60444641 163.97866821 C-136.15329744 164.53489353 -136.70214847 165.09111884 -137.26763135 165.66419947 C-141.27330331 169.61473215 -145.62622238 173.19361379 -151.22265625 174.53125 C-156.30008496 174.44500917 -159.17554352 173.29081139 -163 170 C-165.85457586 166.57450897 -166.35683824 163.69542146 -166.49609375 159.2578125 C-165.03209577 152.59489256 -160.56465046 148.29418412 -155.65722656 143.96801758 C-147.55079509 136.57974684 -139.78061379 128.8845589 -132.03808594 121.11987305 C-131.39329867 120.47379864 -130.7485114 119.82772424 -130.08418512 119.16207182 C-126.65401324 115.7246961 -123.22598322 112.2851968 -119.7995224 108.84412193 C-115.41497445 104.4410512 -111.0258802 100.04253053 -106.63604736 95.64472961 C-94.16743971 83.1521328 -81.70498314 70.65340983 -69.24658203 58.15063477 C-62.33706539 51.2165878 -55.42397176 44.28612703 -48.50701165 37.359505 C-44.14189563 32.98785346 -39.78131933 28.61173925 -35.42407084 24.23224676 C-32.72292793 21.51939314 -30.01763175 18.8107116 -27.31112862 16.10320663 C-26.05645959 14.84638729 -24.80351622 13.58784255 -23.55241966 12.32746696 C-21.847038 10.60992458 -20.13562146 8.89863047 -18.42254639 7.18876648 C-17.92761554 6.68732783 -17.4326847 6.18588919 -16.92275596 5.66925544 C-11.62771885 0.41284066 -7.36256335 -1.03536047 0 0 Z " fill="#000000" transform="translate(391,169)"/>
<path d="M0 0 C9.23107071 6.63330037 14.33371313 14.37995975 17.125 25.3125 C18.13400347 37.67279256 16.67500374 49.09202615 9.125 59.37890625 C1.84872266 67.67841009 -7.24843937 71.8865565 -18.125 73.25 C-29.46428479 73.87727958 -39.6446286 70.59432706 -48.76171875 63.77734375 C-56.04538272 57.09406856 -60.09912808 47.31857563 -60.9609375 37.578125 C-61.08292523 25.2329669 -58.82981244 15.07676436 -50.625 5.375 C-36.99264682 -7.53682711 -16.00809179 -9.80087253 0 0 Z M-33.625 27.375 C-34.83143566 30.99430698 -34.94768559 33.56731005 -34.625 37.375 C-32.80274814 41.01950372 -31.20298075 42.96778629 -27.875 45.3125 C-23.00092421 46.90594786 -19.18328243 46.27385599 -14.3125 44.5625 C-10.66220621 41.99377474 -9.74113127 39.88929564 -8.75 35.5 C-8.29165106 30.57733242 -10.00659331 27.33057475 -13.125 23.5625 C-16.40821851 20.96328535 -20.24987959 20.9268783 -24.265625 20.953125 C-28.35053266 21.68353895 -31.0491315 24.22416086 -33.625 27.375 Z " fill="#000000" transform="translate(385.625,273.625)"/>
<path d="M0 0 C4.01438375 3.8935069 7.19367128 7.70944045 9.625 12.75 C9.94210937 13.36617187 10.25921875 13.98234375 10.5859375 14.6171875 C14.46576591 23.7650398 14.10799912 36.56400683 11 45.875 C6.83028149 55.42877609 0.14962913 63.08352199 -9.5625 67.0625 C-20.41203399 71.11185363 -31.85759872 71.16815015 -42.72265625 67.01171875 C-51.65198827 62.76403945 -58.81968356 55.66899475 -62.5546875 46.45703125 C-66.17064098 34.52438477 -66.41333409 22.73705593 -61.0625 11.375 C-55.68949882 1.62572829 -48.18872378 -4.60786262 -37.48046875 -7.72265625 C-24.26213756 -11.03337 -10.46409903 -8.97807313 0 0 Z M-36.6875 23.4375 C-38.74012856 27.46673385 -39.23239502 30.32159892 -38.375 34.75 C-36.45806306 38.81390632 -34.94581498 40.41612709 -31.0625 42.6875 C-26.88571315 43.89098096 -24.55066881 43.909908 -20.375 42.75 C-16.46546186 40.31739849 -14.51994587 38.22569751 -13.375 33.75 C-12.91196297 29.50549391 -13.08231752 27.31368478 -15.0625 23.5 C-18.42596561 19.50020306 -20.63572408 17.93635099 -25.875 17.375 C-31.08634186 17.93335806 -33.29964315 19.50026096 -36.6875 23.4375 Z " fill="#000000" transform="translate(287.375,174.25)"/>
<path d="M0 0 C3.54335701 2.23385551 5.40486365 4.16834074 7 8 C7.26742554 10.03512573 7.26742554 10.03512573 7.29052734 12.21435547 C7.3096669 13.44616043 7.3096669 13.44616043 7.32919312 14.70285034 C7.33141876 15.5820816 7.33364441 16.46131287 7.3359375 17.3671875 C7.3425943 18.27953156 7.3492511 19.19187561 7.35610962 20.13186646 C7.3662245 22.06005846 7.370927 23.9882854 7.37060547 25.91650391 C7.37497428 28.85768708 7.41129367 31.79736389 7.44921875 34.73828125 C7.45508813 36.61457822 7.45905671 38.49088229 7.4609375 40.3671875 C7.47530853 41.2423703 7.48967957 42.1175531 7.50448608 43.01925659 C7.4637166 48.5020522 6.67973598 51.66679801 3 56 C-1.34440676 59.13201418 -4.75873476 59.3717532 -9.8828125 58.578125 C-13.71993961 57.53034859 -16.10319963 55.51248978 -18.11074829 52.12667847 C-19.06609971 49.8419201 -19.26439662 48.25059662 -19.29052734 45.78564453 C-19.30328705 44.96444122 -19.31604675 44.14323792 -19.32919312 43.29714966 C-19.33141876 42.4179184 -19.33364441 41.53868713 -19.3359375 40.6328125 C-19.3425943 39.72046844 -19.3492511 38.80812439 -19.35610962 37.86813354 C-19.3662245 35.93994154 -19.370927 34.0117146 -19.37060547 32.08349609 C-19.37497428 29.14231292 -19.41129367 26.20263611 -19.44921875 23.26171875 C-19.45508813 21.38542178 -19.45905671 19.50911771 -19.4609375 17.6328125 C-19.47530853 16.7576297 -19.48967957 15.8824469 -19.50448608 14.98074341 C-19.46380643 9.51002928 -18.71076331 6.29908555 -15 2 C-9.54529729 -1.251842 -5.98397721 -1.44773642 0 0 Z " fill="#000000" transform="translate(157,180)"/>
<path d="M0 0 C3.54335701 2.23385551 5.40486365 4.16834074 7 8 C7.26742554 10.03512573 7.26742554 10.03512573 7.29052734 12.21435547 C7.3096669 13.44616043 7.3096669 13.44616043 7.32919312 14.70285034 C7.33141876 15.5820816 7.33364441 16.46131287 7.3359375 17.3671875 C7.3425943 18.27953156 7.3492511 19.19187561 7.35610962 20.13186646 C7.3662245 22.06005846 7.370927 23.9882854 7.37060547 25.91650391 C7.37497428 28.85768708 7.41129367 31.79736389 7.44921875 34.73828125 C7.45508813 36.61457822 7.45905671 38.49088229 7.4609375 40.3671875 C7.47530853 41.2423703 7.48967957 42.1175531 7.50448608 43.01925659 C7.46380643 48.48997072 6.71076331 51.70091445 3 56 C-2.45470271 59.251842 -6.01602279 59.44773642 -12 58 C-15.54335701 55.76614449 -17.40486365 53.83165926 -19 50 C-19.26742554 47.96487427 -19.26742554 47.96487427 -19.29052734 45.78564453 C-19.30328705 44.96444122 -19.31604675 44.14323792 -19.32919312 43.29714966 C-19.33141876 42.4179184 -19.33364441 41.53868713 -19.3359375 40.6328125 C-19.3425943 39.72046844 -19.3492511 38.80812439 -19.35610962 37.86813354 C-19.3662245 35.93994154 -19.370927 34.0117146 -19.37060547 32.08349609 C-19.37497428 29.14231292 -19.41129367 26.20263611 -19.44921875 23.26171875 C-19.45508813 21.38542178 -19.45905671 19.50911771 -19.4609375 17.6328125 C-19.47530853 16.7576297 -19.48967957 15.8824469 -19.50448608 14.98074341 C-19.46380643 9.51002928 -18.71076331 6.29908555 -15 2 C-9.54529729 -1.251842 -5.98397721 -1.44773642 0 0 Z " fill="#000000" transform="translate(157,274)"/>
</svg>
