<?xml version="1.0" encoding="UTF-8"?>
<svg version="1.1" xmlns="http://www.w3.org/2000/svg" width="512" height="512">
<path d="M0 0 C1.52783615 -0.00461633 3.05566785 -0.01097414 4.58349037 -0.01890898 C8.75610555 -0.03552507 12.92835229 -0.02739137 17.10096836 -0.0149641 C21.6109364 -0.00588413 26.12084271 -0.01989791 30.63079834 -0.03088379 C39.45562868 -0.04864221 48.28032271 -0.04484097 57.10515833 -0.03323323 C64.279203 -0.02418863 71.45320956 -0.02297934 78.6272583 -0.02732849 C79.64947562 -0.02794142 80.67169294 -0.02855436 81.72488654 -0.02918586 C83.80169663 -0.0304648 85.87850671 -0.03176166 87.95531678 -0.03307623 C107.41582389 -0.04447418 126.87625554 -0.03138062 146.33675027 -0.00987476 C163.02385436 0.0079955 179.71084714 0.00489117 196.39794922 -0.0135498 C215.79025034 -0.03497036 235.18248538 -0.04337562 254.57479668 -0.03110075 C256.64383824 -0.02982659 258.71287981 -0.02856911 260.78192139 -0.02732849 C261.79984949 -0.02671139 262.81777759 -0.02609429 263.866552 -0.02545848 C271.02947939 -0.02200915 278.19236476 -0.02782496 285.35528564 -0.0372467 C294.08809136 -0.04848123 302.82075331 -0.04539607 311.55354261 -0.02412373 C316.00659819 -0.01363289 320.45941432 -0.00945785 324.91246796 -0.02272034 C328.99357114 -0.03469095 333.07421426 -0.02800537 337.15527606 -0.00681013 C338.62686485 -0.00236375 340.09849298 -0.00456589 341.5700562 -0.01431328 C354.74899169 -0.09487168 364.99299103 2.23693759 374.70458984 11.50793457 C383.46027065 20.67972694 386.32090392 30.68978571 386.21252441 43.15881348 C386.22188436 44.83960967 386.22188436 44.83960967 386.23143339 46.55436134 C386.24729363 50.28129204 386.23478585 54.00756238 386.22216797 57.73449707 C386.22759218 60.41776415 386.23457268 63.10098686 386.2434082 65.78424072 C386.26113643 72.29899377 386.25737902 78.81356183 386.24575764 85.32832193 C386.23670104 90.62594011 386.23550891 95.92350667 386.23985291 101.22113037 C386.24046584 101.97691301 386.24107877 102.73269565 386.24171028 103.51138079 C386.24298926 105.04703889 386.24428611 106.58269697 386.24560064 108.11835504 C386.25698974 122.49710068 386.24391901 136.8757441 386.22239918 151.25447297 C386.20452969 163.57533946 386.20763427 175.89605517 386.22607422 188.21691895 C386.24751051 202.54640622 386.25589126 216.87580403 386.24362516 231.2053051 C386.24235105 232.73511631 386.24109357 234.26492753 386.23985291 235.79473877 C386.23892725 236.92359904 386.23892725 236.92359904 386.2379829 238.07526457 C386.23453826 243.362678 386.24033916 248.65003438 386.24977112 253.93743896 C386.26102322 260.38656067 386.25788398 266.83548779 386.23664814 273.28458738 C386.22618051 276.57113591 386.22411781 279.8572961 386.23524475 283.14385223 C386.246219 286.71524014 386.23241228 290.28572487 386.21252441 293.85705566 C386.22590874 295.39691855 386.22590874 295.39691855 386.23956347 296.96788979 C386.1187694 308.19578846 382.47172156 317.37167184 374.70458984 325.50793457 C364.3088511 335.43203299 353.36848444 337.10833321 339.40917969 337.01586914 C337.88134354 337.02048547 336.35351184 337.02684328 334.82568932 337.03477812 C330.65307414 337.05139421 326.4808274 337.04326051 322.30821133 337.03083324 C317.79824329 337.02175327 313.28833697 337.03576705 308.77838135 337.04675293 C299.953551 337.06451135 291.12885698 337.06071011 282.30402136 337.04910237 C275.12997668 337.04005777 267.95597013 337.03884848 260.78192139 337.04319763 C259.75970407 337.04381056 258.73748675 337.0444235 257.68429315 337.045055 C255.60748306 337.04633394 253.53067298 337.0476308 251.45386291 337.04894537 C231.9933558 337.06034333 212.53292415 337.04724976 193.07242942 337.0257439 C176.38532533 337.00787364 159.69833255 337.01097797 143.01123047 337.02941895 C123.61892935 337.0508395 104.22669431 337.05924476 84.83438301 337.04696989 C82.76534145 337.04569573 80.69629988 337.04443825 78.6272583 337.04319763 C77.6093302 337.04258053 76.5914021 337.04196343 75.54262769 337.04132763 C68.3797003 337.03787829 61.21681493 337.0436941 54.05389404 337.05311584 C45.32108833 337.06435037 36.58842638 337.06126521 27.85563707 337.03999287 C23.4025815 337.02950203 18.94976537 337.02532699 14.49671173 337.03858948 C10.41560854 337.05056009 6.33496542 337.04387451 2.25390363 337.02267927 C0.78231484 337.01823289 -0.68931329 337.02043504 -2.16087651 337.03018242 C-15.339812 337.11074082 -25.58381134 334.77893155 -35.29541016 325.50793457 C-44.05109096 316.3361422 -46.91172424 306.32608343 -46.80334473 293.85705566 C-46.80958469 292.73652487 -46.81582465 291.61599407 -46.8222537 290.4615078 C-46.83811394 286.7345771 -46.82560616 283.00830676 -46.81298828 279.28137207 C-46.81841249 276.59810499 -46.825393 273.91488228 -46.83422852 271.23162842 C-46.85195674 264.71687537 -46.84819933 258.20230731 -46.83657795 251.68754721 C-46.82752135 246.38992903 -46.82632922 241.09236247 -46.83067322 235.79473877 C-46.83159262 234.66106481 -46.83159262 234.66106481 -46.83253059 233.50448835 C-46.83380957 231.96883025 -46.83510642 230.43317217 -46.83642095 228.8975141 C-46.84781006 214.51876846 -46.83473933 200.14012505 -46.81321949 185.76139617 C-46.79535001 173.44052968 -46.79845458 161.11981397 -46.81689453 148.7989502 C-46.83833082 134.46946292 -46.84671158 120.14006511 -46.83444548 105.81056404 C-46.83317136 104.28075283 -46.83191388 102.75094161 -46.83067322 101.22113037 C-46.83005612 100.46855686 -46.82943901 99.71598334 -46.82880321 98.94060457 C-46.82535857 93.65319114 -46.83115947 88.36583476 -46.84059143 83.07843018 C-46.85184353 76.62930847 -46.84870429 70.18038135 -46.82746845 63.73128176 C-46.81700082 60.44473323 -46.81493813 57.15857304 -46.82606506 53.87201691 C-46.83703931 50.300629 -46.8232326 46.73014427 -46.80334473 43.15881348 C-46.81226761 42.13223822 -46.8211905 41.10566296 -46.83038378 40.04797935 C-46.70958971 28.82008069 -43.06254187 19.6441973 -35.29541016 11.50793457 C-24.89967141 1.58383615 -13.95930476 -0.09246407 0 0 Z M-23.29541016 23.50793457 C-29.82872036 31.10249313 -30.60073034 40.37385556 -30.54937744 50.03356934 C-30.55249742 50.9496248 -30.5556174 51.86568026 -30.55883193 52.80949497 C-30.56676167 55.85617717 -30.56050796 58.9026574 -30.55419922 61.94934082 C-30.55691131 64.14293534 -30.56047347 66.33652895 -30.56481934 68.53012085 C-30.5739196 74.47217425 -30.5704088 80.41415803 -30.56406116 86.35621262 C-30.55898896 92.58200006 -30.56369601 98.80778165 -30.5668335 105.03356934 C-30.57070231 116.15673922 -30.56449659 127.27988177 -30.55431482 138.40304625 C-30.54538011 148.47545957 -30.54693239 158.54782677 -30.55615234 168.62023926 C-30.5668705 180.33476342 -30.57083135 192.04926069 -30.56492782 203.76378918 C-30.56181373 209.95839227 -30.56138338 216.15296365 -30.56800079 222.3475647 C-30.57378841 228.17196938 -30.56975137 233.9962872 -30.55821228 239.82068253 C-30.55557328 241.95515931 -30.55631777 244.08964344 -30.56073761 246.22411728 C-30.56622449 249.14360935 -30.55932084 252.0628252 -30.54937744 254.9822998 C-30.55383888 255.82151757 -30.55830033 256.66073534 -30.56289697 257.52538395 C-30.50486661 266.34482528 -29.19263345 274.65278668 -23.29541016 281.50793457 C-13.80540305 289.67182715 -1.64427144 288.79132854 10.14819336 288.73498535 C11.83135691 288.73437191 13.51452097 288.73464099 15.19768429 288.73571587 C19.68486071 288.7361654 24.17192939 288.72461559 28.65908051 288.710495 C32.87733786 288.69906311 37.09556967 288.69856647 41.31384277 288.69714355 C53.63160594 288.68666963 65.94934927 288.65874715 78.26708984 288.63293457 C119.56865234 288.57105957 119.56865234 288.57105957 161.70458984 288.50793457 C161.70458984 198.74793457 161.70458984 108.98793457 161.70458984 16.50793457 C134.17021484 16.46668457 106.63583984 16.42543457 78.26708984 16.38293457 C69.57824463 16.36472656 60.88939941 16.34651855 51.93725586 16.32775879 C44.13762744 16.32106925 44.13762744 16.32106925 36.33799744 16.31704712 C32.86836684 16.31518647 29.39879766 16.30770196 25.92918396 16.29678345 C21.49766385 16.28302354 17.06623252 16.27896001 12.63469303 16.28179002 C11.01195747 16.2811986 9.38921869 16.27725749 7.76650155 16.26950431 C-8.88056209 16.04086197 -8.88056209 16.04086197 -23.29541016 23.50793457 Z M177.70458984 16.50793457 C177.70458984 106.26793457 177.70458984 196.02793457 177.70458984 288.50793457 C205.23896484 288.54918457 232.77333984 288.59043457 261.14208984 288.63293457 C269.83093506 288.65114258 278.51978027 288.66935059 287.47192383 288.68811035 C295.27155225 288.69479989 295.27155225 288.69479989 303.07118225 288.69882202 C306.54081285 288.70068267 310.01038203 288.70816718 313.47999573 288.71908569 C317.91151584 288.7328456 322.34294717 288.73690913 326.77448666 288.73407912 C328.39722221 288.73467054 330.019961 288.73861166 331.64267814 288.74636483 C347.13737018 289.11624158 347.13737018 289.11624158 360.70458984 282.50793457 C368.76395819 274.39058515 369.85856896 266.4401518 369.83830261 255.34306335 C369.84170095 253.97282508 369.84170095 253.97282508 369.84516793 252.57490522 C369.85148973 249.51895873 369.85067974 246.46305679 369.84985352 243.40710449 C369.85284614 241.21395307 369.85624891 239.02080218 369.86003113 236.82765198 C369.86886481 230.87304461 369.87120898 224.91845162 369.87184691 218.96383834 C369.87255778 215.24267347 369.87469279 211.52151225 369.87734413 207.80034828 C369.88611808 195.48578022 369.89076411 183.17121984 369.89001366 170.85664877 C369.8899737 170.19331869 369.88993375 169.52998861 369.88989258 168.84655762 C369.88983126 167.85034176 369.88983126 167.85034176 369.8897687 166.83400033 C369.88936235 156.07368027 369.8989299 145.31339522 369.91303094 134.55308529 C369.92740944 123.4934177 369.93411735 112.43376801 369.93343717 101.37409097 C369.93318232 95.16937811 369.93602621 88.96470488 369.94661522 82.76000023 C369.95630421 76.92333084 369.95636982 71.0867389 369.94909859 65.25006676 C369.94805375 63.11075223 369.95040965 60.97143285 369.95645905 58.83212662 C369.96419613 55.90591268 369.95952273 52.97996507 369.951828 50.05375671 C369.95954335 48.79186052 369.95954335 48.79186052 369.96741456 47.50447148 C369.91704569 38.80261564 368.71985389 30.16669198 362.70458984 23.50793457 C355.02038082 17.51685635 348.11576382 16.3804767 338.48487854 16.38768005 C337.79451508 16.38682404 337.10415161 16.38596802 336.39286804 16.38508606 C334.09123079 16.38344164 331.78966762 16.38893685 329.48803711 16.39440918 C327.80511699 16.39471575 326.12219675 16.39458163 324.4392767 16.39404392 C319.94372664 16.39381871 315.44820336 16.39960305 310.95265961 16.40665436 C306.7299542 16.41236086 302.50725522 16.41261811 298.2845459 16.41333008 C285.94539035 16.41857168 273.60623976 16.43253288 261.26708984 16.44543457 C219.90365234 16.47637207 219.90365234 16.47637207 177.70458984 16.50793457 Z M-29.29541016 298.50793457 C-28.91771637 304.55103522 -27.23590331 308.85365481 -23.29541016 313.50793457 C-13.82181339 321.68123374 -1.63293821 320.79141596 10.14819336 320.73498535 C11.80467217 320.73442047 13.46115148 320.7347393 15.11763 320.73587036 C19.59220536 320.73644187 24.0666725 320.72472039 28.54122281 320.71072245 C33.22571333 320.69818129 37.91020659 320.69704192 42.5947113 320.69467163 C51.4555104 320.68846679 60.31625988 320.67206948 69.17703718 320.65197265 C79.26894534 320.62958261 89.36085592 320.61861242 99.45278275 320.60858178 C120.20341351 320.58770235 140.9539968 320.55214075 161.70458984 320.50793457 C161.70458984 315.22793457 161.70458984 309.94793457 161.70458984 304.50793457 C159.51154709 304.50428894 157.31850433 304.50064331 155.05900574 304.49688721 C134.38615715 304.46062968 113.71345341 304.40240059 93.04072094 304.32403183 C82.41280562 304.28426843 71.78496405 304.25186221 61.15698242 304.23693848 C51.8907024 304.22390799 42.62458486 304.19690762 33.35839635 304.1533215 C28.45464932 304.13073818 23.55110246 304.11502202 18.64729881 304.11605072 C14.02529037 304.11679918 9.40372387 304.09877398 4.78182983 304.06676674 C3.09167308 304.05829522 1.40146659 304.05649902 -0.28870201 304.06213188 C-9.66771239 304.08920972 -17.61856745 303.47755101 -26.29541016 299.50793457 C-27.28541016 299.17793457 -28.27541016 298.84793457 -29.29541016 298.50793457 Z M360.77490234 301.53527832 C356.36564695 303.60679642 352.35505541 303.64210365 347.50396729 303.66615295 C346.77776082 303.67109093 346.05155435 303.67602891 345.30334163 303.68111652 C342.8697105 303.69647587 340.43610573 303.7048479 338.00244141 303.71325684 C336.25802885 303.72283659 334.51361862 303.73284673 332.76921082 303.74325562 C328.03201027 303.77030021 323.29479977 303.79131221 318.55756474 303.8112576 C313.60742947 303.83311988 308.65732488 303.86050739 303.70721436 303.88731384 C294.33275781 303.93723744 284.95828422 303.98217752 275.58379436 304.02533621 C264.91157484 304.07471141 254.23938611 304.1296285 243.56719637 304.1850158 C221.6130227 304.29883075 199.65881918 304.40547429 177.70458984 304.50793457 C177.70458984 309.78793457 177.70458984 315.06793457 177.70458984 320.50793457 C199.45362413 320.55426779 221.2026465 320.58994192 242.95172024 320.61155891 C253.05059427 320.62186363 263.14943705 320.63590861 273.24829102 320.65881348 C282.05227987 320.67877196 290.85624607 320.69165685 299.66025692 320.69611156 C304.32023457 320.69871477 308.98014744 320.70481672 313.64010429 320.71939468 C318.03048628 320.73301743 322.42077709 320.73714774 326.81117821 320.73414993 C328.41834764 320.734698 330.02552027 320.7386474 331.63267136 320.74634552 C347.13255874 321.11726723 347.13255874 321.11726723 360.70458984 314.50793457 C365.55070705 309.62695321 368.70458984 305.61614773 368.70458984 298.50793457 C365.64985061 298.50793457 363.43529986 300.12415492 360.77490234 301.53527832 Z " fill="#000000" transform="translate(86.29541015625,87.4920654296875)"/>
<path d="M0 0 C0.87269531 -0.0038269 1.74539062 -0.00765381 2.64453125 -0.01159668 C4.48699092 -0.0143149 6.32948924 -0.00695994 8.171875 0.00976562 C10.99045934 0.03117752 13.80649485 0.00996199 16.625 -0.015625 C18.41667229 -0.01298171 20.20834299 -0.00785669 22 0 C22.84175781 -0.00809692 23.68351562 -0.01619385 24.55078125 -0.02453613 C30.38715618 0.06889601 30.38715618 0.06889601 33.52929688 2.43945312 C35.12144695 4.7039853 35.542797 5.7922417 35.5 8.53125 C35.51546875 9.52125 35.51546875 9.52125 35.53125 10.53125 C34.73922269 13.51299986 33.45326814 14.69536059 31 16.53125 C26.93404512 17.05792809 23.11858117 16.71031875 19 16.53125 C19 21.81125 19 27.09125 19 32.53125 C20.5675 32.469375 22.135 32.4075 23.75 32.34375 C40.19760953 32.44864547 54.94251971 40.19042039 66.41015625 51.67578125 C79.10189512 65.66923693 83.35954361 81.11055557 83.125 99.53125 C83.11494978 100.89192049 83.10582754 102.25259817 83.09765625 103.61328125 C83.0742082 106.91945647 83.04138856 110.2252588 83 113.53125 C84.42276245 113.980448 84.42276245 113.980448 85.87426758 114.4387207 C91.53556268 116.41749877 94.79531823 120.62707558 97.9375 125.59375 C100.36666915 132.30432977 100.37591485 141.42444598 97.5 147.96875 C93.92237903 153.88901247 88.5222333 158.32614415 82 160.53125 C79.18944073 160.78851891 79.18944073 160.78851891 76.06169128 160.79867554 C74.87156937 160.80720551 73.68144745 160.81573547 72.45526123 160.82452393 C71.1580011 160.82361755 69.86074097 160.82271118 68.52416992 160.82177734 C67.1374119 160.82776498 65.7506572 160.83457107 64.36390686 160.84213257 C60.60343726 160.85977711 56.84305872 160.86448732 53.08255172 160.86576414 C50.73078389 160.86718731 48.37903909 160.87146007 46.02727699 160.87675858 C37.81593993 160.89525456 29.60466775 160.90342983 21.39331055 160.90185547 C13.75030641 160.90065456 6.10758489 160.92174795 -1.53534776 160.9533428 C-8.10623332 160.97953377 -14.67702675 160.99022157 -21.24796408 160.98894465 C-25.16846545 160.98843579 -29.08871564 160.99407633 -33.00916481 161.01530075 C-36.69880063 161.03473067 -40.38794693 161.03477567 -44.07760048 161.02026749 C-46.06798308 161.01719482 -48.05836597 161.03382301 -50.04867554 161.05114746 C-58.27335973 160.99358217 -63.88177784 160.14007534 -70.2421875 154.56640625 C-71.05042969 153.58994141 -71.05042969 153.58994141 -71.875 152.59375 C-72.42929688 151.94535156 -72.98359375 151.29695312 -73.5546875 150.62890625 C-78.03412097 144.12767443 -77.67463728 137.15984083 -77 129.53125 C-75.32950306 122.91269883 -70.5548862 118.27428856 -65 114.53125 C-63.67480309 114.1669122 -62.34177631 113.82878191 -61 113.53125 C-61.02094727 112.72083252 -61.04189453 111.91041504 -61.06347656 111.07543945 C-61.13258507 108.00207922 -61.18224459 104.92912113 -61.21972656 101.85522461 C-61.24919327 99.89735224 -61.30007758 97.93983901 -61.3515625 95.98242188 C-61.52852321 78.59603245 -55.21854318 63.30325988 -43.32983398 50.64404297 C-33.53522782 40.75805371 -19.10090236 32.94987961 -4.99609375 32.41796875 C-2.33048127 32.40775568 0.33522177 32.46378726 3 32.53125 C3 27.25125 3 21.97125 3 16.53125 C1.1025 16.61375 -0.795 16.69625 -2.75 16.78125 C-8.34109091 17.02434091 -8.34109091 17.02434091 -11.359375 14.765625 C-13.09023982 12.40835195 -13.54492653 11.40654794 -13.5 8.53125 C-13.5103125 7.87125 -13.520625 7.21125 -13.53125 6.53125 C-11.69061453 -0.39820116 -5.94975317 -0.05723107 0 0 Z M-33.25 65.84375 C-45.07826647 79.67481059 -45 94.8799391 -45 112.53125 C-8.04 112.53125 28.92 112.53125 67 112.53125 C67 91.93233409 66.36296564 77.26188749 51.8984375 62.3671875 C38.39094939 49.62337363 22.78282101 47.92597841 4.98095703 48.43798828 C-10.86137222 49.18383124 -22.3996462 54.34318774 -33.25 65.84375 Z M-59 131.53125 C-60.42041821 134.37208641 -60.31452272 136.38602278 -60 139.53125 C-57.76793569 142.37905619 -56.45007001 143.38122666 -53 144.53125 C-51.2754692 144.62763962 -49.5474499 144.66618717 -47.82023621 144.67169189 C-46.21153908 144.68025711 -46.21153908 144.68025711 -44.57034302 144.68899536 C-43.39366058 144.69011322 -42.21697815 144.69123108 -41.00463867 144.69238281 C-39.14575264 144.69983017 -39.14575264 144.69983017 -37.24931335 144.70742798 C-33.8483544 144.71953823 -30.44745695 144.72699524 -27.04648376 144.73143864 C-24.92088732 144.73437097 -22.79529626 144.7384761 -20.66970253 144.74294281 C-14.01685842 144.75661575 -7.36402661 144.76628324 -0.71116942 144.7701447 C6.96415682 144.77462429 14.63930486 144.79216829 22.31457692 144.8211453 C28.25014224 144.84277503 34.18565747 144.85284968 40.12126178 144.85418582 C43.66498999 144.85523298 47.20855066 144.86112164 50.75223732 144.87900543 C54.70703481 144.89857576 58.66161034 144.89419196 62.61645508 144.88769531 C63.78706482 144.8969101 64.95767456 144.90612488 66.16375732 144.9156189 C74.00446798 144.88677551 74.00446798 144.88677551 81 141.53125 C82.42041821 138.69041359 82.31452272 136.67647722 82 133.53125 C79.76793569 130.68344381 78.45007001 129.68127334 75 128.53125 C73.2754692 128.43486038 71.5474499 128.39631283 69.82023621 128.39080811 C68.74777145 128.38509796 67.6753067 128.37938782 66.57034302 128.37350464 C65.39366058 128.37238678 64.21697815 128.37126892 63.00463867 128.37011719 C61.76538132 128.36515228 60.52612396 128.36018738 59.24931335 128.35507202 C55.8483544 128.34296177 52.44745695 128.33550476 49.04648376 128.33106136 C46.92088732 128.32812903 44.79529626 128.3240239 42.66970253 128.31955719 C36.01685842 128.30588425 29.36402661 128.29621676 22.71116942 128.2923553 C15.03584318 128.28787571 7.36069514 128.27033171 -0.31457692 128.2413547 C-6.25014224 128.21972497 -12.18565747 128.20965032 -18.12126178 128.20831418 C-21.66498999 128.20726702 -25.20855066 128.20137836 -28.75223732 128.18349457 C-32.70703481 128.16392424 -36.66161034 128.16830804 -40.61645508 128.17480469 C-41.78706482 128.1655899 -42.95767456 128.15637512 -44.16375732 128.1468811 C-52.00446798 128.17572449 -52.00446798 128.17572449 -59 131.53125 Z " fill="#000000" transform="translate(141,127.46875)"/>
<path d="M0 0 C1.05026367 -0.0038269 2.10052734 -0.00765381 3.18261719 -0.01159668 C5.40170247 -0.01431696 7.62081974 -0.00694777 9.83984375 0.00976562 C13.23770595 0.03117255 16.63345361 0.00996675 20.03125 -0.015625 C22.18750467 -0.01298175 24.34375802 -0.00785682 26.5 0 C27.51674805 -0.00809692 28.53349609 -0.01619385 29.58105469 -0.02453613 C33.48440043 0.02739124 36.39212968 0.08866257 39.88867188 1.89257812 C42.11406275 6.2060689 41.81932893 10.49959728 41.78125 15.28125 C41.7850769 16.33151367 41.78890381 17.38177734 41.79284668 18.46386719 C41.79556696 20.68295247 41.78819777 22.90206974 41.77148438 25.12109375 C41.75007745 28.51895595 41.77128325 31.91470361 41.796875 35.3125 C41.79423175 37.46875467 41.78910682 39.62500802 41.78125 41.78125 C41.78934692 42.79799805 41.79744385 43.81474609 41.80578613 44.86230469 C41.75385876 48.76565043 41.69258743 51.67337968 39.88867188 55.16992188 C35.5751811 57.39531275 31.28165272 57.10057893 26.5 57.0625 C24.92460449 57.06824036 24.92460449 57.06824036 23.31738281 57.07409668 C21.09829753 57.07681696 18.87918026 57.06944777 16.66015625 57.05273438 C13.26229405 57.03132745 9.86654639 57.05253325 6.46875 57.078125 C4.31249533 57.07548175 2.15624198 57.07035682 0 57.0625 C-1.01674805 57.07059692 -2.03349609 57.07869385 -3.08105469 57.08703613 C-6.98440043 57.03510876 -9.89212968 56.97383743 -13.38867188 55.16992188 C-15.61406275 50.8564311 -15.31932893 46.56290272 -15.28125 41.78125 C-15.2850769 40.73098633 -15.28890381 39.68072266 -15.29284668 38.59863281 C-15.29556696 36.37954753 -15.28819777 34.16043026 -15.27148438 31.94140625 C-15.25007745 28.54354405 -15.27128325 25.14779639 -15.296875 21.75 C-15.29423175 19.59374533 -15.28910682 17.43749198 -15.28125 15.28125 C-15.28934692 14.26450195 -15.29744385 13.24775391 -15.30578613 12.20019531 C-15.25385876 8.29684957 -15.19258743 5.38912032 -13.38867188 1.89257812 C-9.0751811 -0.33281275 -4.78165272 -0.03807893 0 0 Z M1.25 16.53125 C1.25 24.45125 1.25 32.37125 1.25 40.53125 C9.17 40.53125 17.09 40.53125 25.25 40.53125 C25.25 32.61125 25.25 24.69125 25.25 16.53125 C17.33 16.53125 9.41 16.53125 1.25 16.53125 Z " fill="#000000" transform="translate(302.75,287.46875)"/>
<path d="M0 0 C1.05026367 -0.0038269 2.10052734 -0.00765381 3.18261719 -0.01159668 C5.40170247 -0.01431696 7.62081974 -0.00694777 9.83984375 0.00976562 C13.23770595 0.03117255 16.63345361 0.00996675 20.03125 -0.015625 C22.18750467 -0.01298175 24.34375802 -0.00785682 26.5 0 C27.51674805 -0.00809692 28.53349609 -0.01619385 29.58105469 -0.02453613 C33.48440043 0.02739124 36.39212968 0.08866257 39.88867188 1.89257812 C42.11406275 6.2060689 41.81932893 10.49959728 41.78125 15.28125 C41.7850769 16.33151367 41.78890381 17.38177734 41.79284668 18.46386719 C41.79556696 20.68295247 41.78819777 22.90206974 41.77148438 25.12109375 C41.75007745 28.51895595 41.77128325 31.91470361 41.796875 35.3125 C41.79423175 37.46875467 41.78910682 39.62500802 41.78125 41.78125 C41.78934692 42.79799805 41.79744385 43.81474609 41.80578613 44.86230469 C41.75385876 48.76565043 41.69258743 51.67337968 39.88867188 55.16992188 C35.5751811 57.39531275 31.28165272 57.10057893 26.5 57.0625 C24.92460449 57.06824036 24.92460449 57.06824036 23.31738281 57.07409668 C21.09829753 57.07681696 18.87918026 57.06944777 16.66015625 57.05273438 C13.26229405 57.03132745 9.86654639 57.05253325 6.46875 57.078125 C4.31249533 57.07548175 2.15624198 57.07035682 0 57.0625 C-1.01674805 57.07059692 -2.03349609 57.07869385 -3.08105469 57.08703613 C-6.98440043 57.03510876 -9.89212968 56.97383743 -13.38867188 55.16992188 C-15.61406275 50.8564311 -15.31932893 46.56290272 -15.28125 41.78125 C-15.2850769 40.73098633 -15.28890381 39.68072266 -15.29284668 38.59863281 C-15.29556696 36.37954753 -15.28819777 34.16043026 -15.27148438 31.94140625 C-15.25007745 28.54354405 -15.27128325 25.14779639 -15.296875 21.75 C-15.29423175 19.59374533 -15.28910682 17.43749198 -15.28125 15.28125 C-15.28934692 14.26450195 -15.29744385 13.24775391 -15.30578613 12.20019531 C-15.25385876 8.29684957 -15.19258743 5.38912032 -13.38867188 1.89257812 C-9.0751811 -0.33281275 -4.78165272 -0.03807893 0 0 Z M1.25 16.53125 C1.25 24.45125 1.25 32.37125 1.25 40.53125 C9.17 40.53125 17.09 40.53125 25.25 40.53125 C25.25 32.61125 25.25 24.69125 25.25 16.53125 C17.33 16.53125 9.41 16.53125 1.25 16.53125 Z " fill="#000000" transform="translate(302.75,207.46875)"/>
<path d="M0 0 C1.05026367 -0.0038269 2.10052734 -0.00765381 3.18261719 -0.01159668 C5.40170247 -0.01431696 7.62081974 -0.00694777 9.83984375 0.00976562 C13.23770595 0.03117255 16.63345361 0.00996675 20.03125 -0.015625 C22.18750467 -0.01298175 24.34375802 -0.00785682 26.5 0 C27.51674805 -0.00809692 28.53349609 -0.01619385 29.58105469 -0.02453613 C33.48440043 0.02739124 36.39212968 0.08866257 39.88867188 1.89257812 C42.11406275 6.2060689 41.81932893 10.49959728 41.78125 15.28125 C41.7850769 16.33151367 41.78890381 17.38177734 41.79284668 18.46386719 C41.79556696 20.68295247 41.78819777 22.90206974 41.77148438 25.12109375 C41.75007745 28.51895595 41.77128325 31.91470361 41.796875 35.3125 C41.79423175 37.46875467 41.78910682 39.62500802 41.78125 41.78125 C41.78934692 42.79799805 41.79744385 43.81474609 41.80578613 44.86230469 C41.75385876 48.76565043 41.69258743 51.67337968 39.88867188 55.16992188 C35.5751811 57.39531275 31.28165272 57.10057893 26.5 57.0625 C24.92460449 57.06824036 24.92460449 57.06824036 23.31738281 57.07409668 C21.09829753 57.07681696 18.87918026 57.06944777 16.66015625 57.05273438 C13.26229405 57.03132745 9.86654639 57.05253325 6.46875 57.078125 C4.31249533 57.07548175 2.15624198 57.07035682 0 57.0625 C-1.01674805 57.07059692 -2.03349609 57.07869385 -3.08105469 57.08703613 C-6.98440043 57.03510876 -9.89212968 56.97383743 -13.38867188 55.16992188 C-15.61406275 50.8564311 -15.31932893 46.56290272 -15.28125 41.78125 C-15.2850769 40.73098633 -15.28890381 39.68072266 -15.29284668 38.59863281 C-15.29556696 36.37954753 -15.28819777 34.16043026 -15.27148438 31.94140625 C-15.25007745 28.54354405 -15.27128325 25.14779639 -15.296875 21.75 C-15.29423175 19.59374533 -15.28910682 17.43749198 -15.28125 15.28125 C-15.28934692 14.26450195 -15.29744385 13.24775391 -15.30578613 12.20019531 C-15.25385876 8.29684957 -15.19258743 5.38912032 -13.38867188 1.89257812 C-9.0751811 -0.33281275 -4.78165272 -0.03807893 0 0 Z M1.25 16.53125 C1.25 24.45125 1.25 32.37125 1.25 40.53125 C9.17 40.53125 17.09 40.53125 25.25 40.53125 C25.25 32.61125 25.25 24.69125 25.25 16.53125 C17.33 16.53125 9.41 16.53125 1.25 16.53125 Z " fill="#000000" transform="translate(302.75,127.46875)"/>
<path d="M0 0 C1.14404297 -0.0112793 2.28808594 -0.02255859 3.46679688 -0.03417969 C5.34334961 -0.0220343 5.34334961 -0.0220343 7.2578125 -0.00964355 C8.59180465 -0.01506511 9.9257908 -0.02218797 11.25976562 -0.03088379 C14.87966598 -0.04911656 18.49911024 -0.04205017 22.11901855 -0.02936745 C25.9074832 -0.01923938 29.69590882 -0.02863258 33.484375 -0.03491211 C39.84642548 -0.04218911 46.20829022 -0.03259956 52.5703125 -0.0135498 C59.92541387 0.00821921 67.28007173 0.00116786 74.63516235 -0.02085543 C80.95036617 -0.03900805 87.26543648 -0.04156848 93.58065796 -0.03110075 C97.35234853 -0.02486499 101.12383064 -0.02403225 104.89550781 -0.0372467 C108.44153603 -0.04880278 111.98699253 -0.04078487 115.53295898 -0.01766968 C117.45490737 -0.00985857 119.37690412 -0.02174065 121.29882812 -0.03417969 C123.01489258 -0.01726074 123.01489258 -0.01726074 124.765625 0 C125.75965332 0.0015081 126.75368164 0.0030162 127.77783203 0.00457001 C131.10045353 0.6466055 132.29109008 1.90497918 134.3828125 4.50793457 C134.9140625 6.50793457 134.9140625 6.50793457 134.8828125 8.50793457 C134.89828125 9.49793457 134.89828125 9.49793457 134.9140625 10.50793457 C134.13782429 13.43024313 132.6995018 14.60216083 130.3828125 16.50793457 C127.77783203 17.01129913 127.77783203 17.01129913 124.765625 17.01586914 C123.62158203 17.02714844 122.47753906 17.03842773 121.29882812 17.05004883 C120.04779297 17.0419519 118.79675781 17.03385498 117.5078125 17.0255127 C116.17382035 17.03093425 114.8398342 17.03805711 113.50585938 17.04675293 C109.88595902 17.0649857 106.26651476 17.05791931 102.64660645 17.04523659 C98.8581418 17.03510852 95.06971618 17.04450172 91.28125 17.05078125 C84.91919952 17.05805825 78.55733478 17.0484687 72.1953125 17.02941895 C64.84021113 17.00764993 57.48555327 17.01470128 50.13046265 17.03672457 C43.81525883 17.05487719 37.50018852 17.05743762 31.18496704 17.04696989 C27.41327647 17.04073413 23.64179436 17.03990139 19.87011719 17.05311584 C16.32408897 17.06467192 12.77863247 17.05665401 9.23266602 17.03353882 C7.31071763 17.02572771 5.38872088 17.03760979 3.46679688 17.05004883 C1.75073242 17.03312988 1.75073242 17.03312988 0 17.01586914 C-0.99402832 17.01436104 -1.98805664 17.01285294 -3.01220703 17.01129913 C-6.33482853 16.36926364 -7.52546508 15.11088996 -9.6171875 12.50793457 C-10.1484375 10.50793457 -10.1484375 10.50793457 -10.1171875 8.50793457 C-10.13265625 7.51793457 -10.13265625 7.51793457 -10.1484375 6.50793457 C-8.74861472 1.23801353 -4.99267277 0.0075747 0 0 Z " fill="#000000" transform="translate(89.6171875,335.4920654296875)"/>
<path d="M0 0 C1.14404297 -0.0112793 2.28808594 -0.02255859 3.46679688 -0.03417969 C5.34334961 -0.0220343 5.34334961 -0.0220343 7.2578125 -0.00964355 C8.59180465 -0.01506511 9.9257908 -0.02218797 11.25976562 -0.03088379 C14.87966598 -0.04911656 18.49911024 -0.04205017 22.11901855 -0.02936745 C25.9074832 -0.01923938 29.69590882 -0.02863258 33.484375 -0.03491211 C39.84642548 -0.04218911 46.20829022 -0.03259956 52.5703125 -0.0135498 C59.92541387 0.00821921 67.28007173 0.00116786 74.63516235 -0.02085543 C80.95036617 -0.03900805 87.26543648 -0.04156848 93.58065796 -0.03110075 C97.35234853 -0.02486499 101.12383064 -0.02403225 104.89550781 -0.0372467 C108.44153603 -0.04880278 111.98699253 -0.04078487 115.53295898 -0.01766968 C117.45490737 -0.00985857 119.37690412 -0.02174065 121.29882812 -0.03417969 C123.01489258 -0.01726074 123.01489258 -0.01726074 124.765625 0 C125.75965332 0.0015081 126.75368164 0.0030162 127.77783203 0.00457001 C131.10045353 0.6466055 132.29109008 1.90497918 134.3828125 4.50793457 C134.9140625 6.50793457 134.9140625 6.50793457 134.8828125 8.50793457 C134.89828125 9.49793457 134.89828125 9.49793457 134.9140625 10.50793457 C134.13782429 13.43024313 132.6995018 14.60216083 130.3828125 16.50793457 C127.77783203 17.01129913 127.77783203 17.01129913 124.765625 17.01586914 C123.62158203 17.02714844 122.47753906 17.03842773 121.29882812 17.05004883 C120.04779297 17.0419519 118.79675781 17.03385498 117.5078125 17.0255127 C116.17382035 17.03093425 114.8398342 17.03805711 113.50585938 17.04675293 C109.88595902 17.0649857 106.26651476 17.05791931 102.64660645 17.04523659 C98.8581418 17.03510852 95.06971618 17.04450172 91.28125 17.05078125 C84.91919952 17.05805825 78.55733478 17.0484687 72.1953125 17.02941895 C64.84021113 17.00764993 57.48555327 17.01470128 50.13046265 17.03672457 C43.81525883 17.05487719 37.50018852 17.05743762 31.18496704 17.04696989 C27.41327647 17.04073413 23.64179436 17.03990139 19.87011719 17.05311584 C16.32408897 17.06467192 12.77863247 17.05665401 9.23266602 17.03353882 C7.31071763 17.02572771 5.38872088 17.03760979 3.46679688 17.05004883 C1.75073242 17.03312988 1.75073242 17.03312988 0 17.01586914 C-0.99402832 17.01436104 -1.98805664 17.01285294 -3.01220703 17.01129913 C-6.33482853 16.36926364 -7.52546508 15.11088996 -9.6171875 12.50793457 C-10.1484375 10.50793457 -10.1484375 10.50793457 -10.1171875 8.50793457 C-10.13265625 7.51793457 -10.13265625 7.51793457 -10.1484375 6.50793457 C-8.74861472 1.23801353 -4.99267277 0.0075747 0 0 Z " fill="#000000" transform="translate(89.6171875,303.4920654296875)"/>
<path d="M0 0 C0.69641602 -0.00700928 1.39283203 -0.01401855 2.11035156 -0.02124023 C4.40730932 -0.03881383 6.70303021 -0.02720107 9 -0.01367188 C10.59896073 -0.01636701 12.19791987 -0.0202496 13.796875 -0.02526855 C17.14599226 -0.03116269 20.49468243 -0.0226038 23.84375 -0.00390625 C28.13478591 0.01888377 32.42482111 0.00576017 36.71582031 -0.01819611 C40.01700366 -0.03265667 43.31795011 -0.02804703 46.61914062 -0.01768494 C48.20117308 -0.01501834 49.78322711 -0.0182851 51.36523438 -0.02760315 C53.57740163 -0.03777366 55.787953 -0.02226378 58 0 C59.8871875 0.00477356 59.8871875 0.00477356 61.8125 0.00964355 C65.55520109 0.60605054 66.73159929 1.54273163 69 4.51757812 C69.53125 6.51757812 69.53125 6.51757812 69.5 8.51757812 C69.51546875 9.50757813 69.51546875 9.50757813 69.53125 10.51757812 C68.74176632 13.48975197 67.39936627 14.61414098 65 16.51757812 C61.8125 17.0255127 61.8125 17.0255127 58 17.03515625 C57.30358398 17.04216553 56.60716797 17.0491748 55.88964844 17.05639648 C53.59269068 17.07397008 51.29696979 17.06235732 49 17.04882812 C47.40103927 17.05152326 45.80208013 17.05540585 44.203125 17.0604248 C40.85400774 17.06631894 37.50531757 17.05776005 34.15625 17.0390625 C29.86521409 17.01627248 25.57517889 17.02939608 21.28417969 17.05335236 C17.98299634 17.06781292 14.68204989 17.06320328 11.38085938 17.05284119 C9.79882692 17.05017459 8.21677289 17.05344135 6.63476562 17.0627594 C4.42259837 17.07292991 2.212047 17.05742003 0 17.03515625 C-1.258125 17.03197388 -2.51625 17.0287915 -3.8125 17.0255127 C-7.55520109 16.42910571 -8.73159929 15.49242462 -11 12.51757812 C-11.53125 10.51757812 -11.53125 10.51757812 -11.5 8.51757812 C-11.51546875 7.52757812 -11.51546875 7.52757812 -11.53125 6.51757812 C-9.93997703 0.52690342 -5.4948528 0.01389899 0 0 Z " fill="#000000" transform="translate(363,327.482421875)"/>
<path d="M0 0 C0.69641602 -0.00700928 1.39283203 -0.01401855 2.11035156 -0.02124023 C4.40730932 -0.03881383 6.70303021 -0.02720107 9 -0.01367188 C10.59896073 -0.01636701 12.19791987 -0.0202496 13.796875 -0.02526855 C17.14599226 -0.03116269 20.49468243 -0.0226038 23.84375 -0.00390625 C28.13478591 0.01888377 32.42482111 0.00576017 36.71582031 -0.01819611 C40.01700366 -0.03265667 43.31795011 -0.02804703 46.61914062 -0.01768494 C48.20117308 -0.01501834 49.78322711 -0.0182851 51.36523438 -0.02760315 C53.57740163 -0.03777366 55.787953 -0.02226378 58 0 C59.8871875 0.00477356 59.8871875 0.00477356 61.8125 0.00964355 C65.55520109 0.60605054 66.73159929 1.54273163 69 4.51757812 C69.53125 6.51757812 69.53125 6.51757812 69.5 8.51757812 C69.51546875 9.50757813 69.51546875 9.50757813 69.53125 10.51757812 C68.74176632 13.48975197 67.39936627 14.61414098 65 16.51757812 C61.8125 17.0255127 61.8125 17.0255127 58 17.03515625 C57.30358398 17.04216553 56.60716797 17.0491748 55.88964844 17.05639648 C53.59269068 17.07397008 51.29696979 17.06235732 49 17.04882812 C47.40103927 17.05152326 45.80208013 17.05540585 44.203125 17.0604248 C40.85400774 17.06631894 37.50531757 17.05776005 34.15625 17.0390625 C29.86521409 17.01627248 25.57517889 17.02939608 21.28417969 17.05335236 C17.98299634 17.06781292 14.68204989 17.06320328 11.38085938 17.05284119 C9.79882692 17.05017459 8.21677289 17.05344135 6.63476562 17.0627594 C4.42259837 17.07292991 2.212047 17.05742003 0 17.03515625 C-1.258125 17.03197388 -2.51625 17.0287915 -3.8125 17.0255127 C-7.55520109 16.42910571 -8.73159929 15.49242462 -11 12.51757812 C-11.53125 10.51757812 -11.53125 10.51757812 -11.5 8.51757812 C-11.51546875 7.52757812 -11.51546875 7.52757812 -11.53125 6.51757812 C-9.93997703 0.52690342 -5.4948528 0.01389899 0 0 Z " fill="#000000" transform="translate(363,247.482421875)"/>
<path d="M0 0 C0.69641602 -0.00700928 1.39283203 -0.01401855 2.11035156 -0.02124023 C4.40730932 -0.03881383 6.70303021 -0.02720107 9 -0.01367188 C10.59896073 -0.01636701 12.19791987 -0.0202496 13.796875 -0.02526855 C17.14599226 -0.03116269 20.49468243 -0.0226038 23.84375 -0.00390625 C28.13478591 0.01888377 32.42482111 0.00576017 36.71582031 -0.01819611 C40.01700366 -0.03265667 43.31795011 -0.02804703 46.61914062 -0.01768494 C48.20117308 -0.01501834 49.78322711 -0.0182851 51.36523438 -0.02760315 C53.57740163 -0.03777366 55.787953 -0.02226378 58 0 C59.8871875 0.00477356 59.8871875 0.00477356 61.8125 0.00964355 C65.55520109 0.60605054 66.73159929 1.54273163 69 4.51757812 C69.53125 6.51757812 69.53125 6.51757812 69.5 8.51757812 C69.51546875 9.50757813 69.51546875 9.50757813 69.53125 10.51757812 C68.74176632 13.48975197 67.39936627 14.61414098 65 16.51757812 C61.8125 17.0255127 61.8125 17.0255127 58 17.03515625 C57.30358398 17.04216553 56.60716797 17.0491748 55.88964844 17.05639648 C53.59269068 17.07397008 51.29696979 17.06235732 49 17.04882812 C47.40103927 17.05152326 45.80208013 17.05540585 44.203125 17.0604248 C40.85400774 17.06631894 37.50531757 17.05776005 34.15625 17.0390625 C29.86521409 17.01627248 25.57517889 17.02939608 21.28417969 17.05335236 C17.98299634 17.06781292 14.68204989 17.06320328 11.38085938 17.05284119 C9.79882692 17.05017459 8.21677289 17.05344135 6.63476562 17.0627594 C4.42259837 17.07292991 2.212047 17.05742003 0 17.03515625 C-1.258125 17.03197388 -2.51625 17.0287915 -3.8125 17.0255127 C-7.55520109 16.42910571 -8.73159929 15.49242462 -11 12.51757812 C-11.53125 10.51757812 -11.53125 10.51757812 -11.5 8.51757812 C-11.51546875 7.52757812 -11.51546875 7.52757812 -11.53125 6.51757812 C-9.93997703 0.52690342 -5.4948528 0.01389899 0 0 Z " fill="#000000" transform="translate(363,167.482421875)"/>
<path d="M0 0 C1.05026367 -0.0038269 2.10052734 -0.00765381 3.18261719 -0.01159668 C5.40170247 -0.01431696 7.62081974 -0.00694777 9.83984375 0.00976562 C13.23770595 0.03117255 16.63345361 0.00996675 20.03125 -0.015625 C22.18750467 -0.01298175 24.34375802 -0.00785682 26.5 0 C27.51674805 -0.00809692 28.53349609 -0.01619385 29.58105469 -0.02453613 C36.61077417 0.06898232 36.61077417 0.06898232 39.88867188 2.43945312 C41.35641689 4.69476864 41.79171277 5.86163257 41.75 8.53125 C41.7603125 9.19125 41.770625 9.85125 41.78125 10.53125 C40.9489357 13.66466854 39.90683918 14.60990886 37.25 16.53125 C33.67231501 17.14709573 30.12279111 17.09135028 26.5 17.0625 C24.92460449 17.06824036 24.92460449 17.06824036 23.31738281 17.07409668 C21.09829753 17.07681696 18.87918026 17.06944777 16.66015625 17.05273438 C13.26229405 17.03132745 9.86654639 17.05253325 6.46875 17.078125 C4.31249533 17.07548175 2.15624198 17.07035682 0 17.0625 C-1.01674805 17.07059692 -2.03349609 17.07869385 -3.08105469 17.08703613 C-10.11077417 16.99351768 -10.11077417 16.99351768 -13.38867188 14.62304688 C-14.85641689 12.36773136 -15.29171277 11.20086743 -15.25 8.53125 C-15.26546875 7.54125 -15.26546875 7.54125 -15.28125 6.53125 C-13.27705847 -1.01394163 -6.37452488 -0.05076385 0 0 Z " fill="#000000" transform="translate(366.75,295.46875)"/>
<path d="M0 0 C1.05026367 -0.0038269 2.10052734 -0.00765381 3.18261719 -0.01159668 C5.40170247 -0.01431696 7.62081974 -0.00694777 9.83984375 0.00976562 C13.23770595 0.03117255 16.63345361 0.00996675 20.03125 -0.015625 C22.18750467 -0.01298175 24.34375802 -0.00785682 26.5 0 C27.51674805 -0.00809692 28.53349609 -0.01619385 29.58105469 -0.02453613 C36.61077417 0.06898232 36.61077417 0.06898232 39.88867188 2.43945312 C41.35641689 4.69476864 41.79171277 5.86163257 41.75 8.53125 C41.7603125 9.19125 41.770625 9.85125 41.78125 10.53125 C40.9489357 13.66466854 39.90683918 14.60990886 37.25 16.53125 C33.67231501 17.14709573 30.12279111 17.09135028 26.5 17.0625 C24.92460449 17.06824036 24.92460449 17.06824036 23.31738281 17.07409668 C21.09829753 17.07681696 18.87918026 17.06944777 16.66015625 17.05273438 C13.26229405 17.03132745 9.86654639 17.05253325 6.46875 17.078125 C4.31249533 17.07548175 2.15624198 17.07035682 0 17.0625 C-1.01674805 17.07059692 -2.03349609 17.07869385 -3.08105469 17.08703613 C-10.11077417 16.99351768 -10.11077417 16.99351768 -13.38867188 14.62304688 C-14.85641689 12.36773136 -15.29171277 11.20086743 -15.25 8.53125 C-15.26546875 7.54125 -15.26546875 7.54125 -15.28125 6.53125 C-13.27705847 -1.01394163 -6.37452488 -0.05076385 0 0 Z " fill="#000000" transform="translate(366.75,215.46875)"/>
<path d="M0 0 C1.05026367 -0.0038269 2.10052734 -0.00765381 3.18261719 -0.01159668 C5.40170247 -0.01431696 7.62081974 -0.00694777 9.83984375 0.00976562 C13.23770595 0.03117255 16.63345361 0.00996675 20.03125 -0.015625 C22.18750467 -0.01298175 24.34375802 -0.00785682 26.5 0 C27.51674805 -0.00809692 28.53349609 -0.01619385 29.58105469 -0.02453613 C36.61077417 0.06898232 36.61077417 0.06898232 39.88867188 2.43945312 C41.35641689 4.69476864 41.79171277 5.86163257 41.75 8.53125 C41.7603125 9.19125 41.770625 9.85125 41.78125 10.53125 C40.9489357 13.66466854 39.90683918 14.60990886 37.25 16.53125 C33.67231501 17.14709573 30.12279111 17.09135028 26.5 17.0625 C24.92460449 17.06824036 24.92460449 17.06824036 23.31738281 17.07409668 C21.09829753 17.07681696 18.87918026 17.06944777 16.66015625 17.05273438 C13.26229405 17.03132745 9.86654639 17.05253325 6.46875 17.078125 C4.31249533 17.07548175 2.15624198 17.07035682 0 17.0625 C-1.01674805 17.07059692 -2.03349609 17.07869385 -3.08105469 17.08703613 C-10.11077417 16.99351768 -10.11077417 16.99351768 -13.38867188 14.62304688 C-14.85641689 12.36773136 -15.29171277 11.20086743 -15.25 8.53125 C-15.26546875 7.54125 -15.26546875 7.54125 -15.28125 6.53125 C-13.27705847 -1.01394163 -6.37452488 -0.05076385 0 0 Z " fill="#000000" transform="translate(366.75,135.46875)"/>
</svg>
