<svg width="18" height="12" viewBox="0 0 18 12" fill="none" xmlns="http://www.w3.org/2000/svg">
<path d="M16.0412 12C16.0412 12 17.0515 12 17.0515 11C17.0515 10 16.0412 7 12 7C7.95876 7 6.94845 10 6.94845 11C6.94845 12 7.95876 12 7.95876 12H16.0412ZM15.0309 3C15.0309 3.39397 14.9525 3.78407 14.8002 4.14805C14.6479 4.51203 14.4246 4.84274 14.1432 5.12132C13.8617 5.3999 13.5276 5.62087 13.1599 5.77164C12.7922 5.9224 12.398 6 12 6C11.602 6 11.2078 5.9224 10.8401 5.77164C10.4724 5.62087 10.1383 5.3999 9.85681 5.12132C9.57536 4.84274 9.3521 4.51203 9.19979 4.14805C9.04747 3.78407 8.96907 3.39397 8.96907 3C8.96907 2.20435 9.2884 1.44129 9.85681 0.87868C10.4252 0.316071 11.1961 0 12 0C12.8039 0 13.5748 0.316071 14.1432 0.87868C14.7116 1.44129 15.0309 2.20435 15.0309 3ZM7.8941 7.28C7.48996 7.15404 7.07336 7.07123 6.65142 7.033C6.41433 7.01068 6.1763 6.99967 5.93814 7C1.89691 7 0.886597 10 0.886597 11C0.886597 11.667 1.22303 12 1.89691 12H6.15637C6.0066 11.6878 5.9319 11.3455 5.93814 11C5.93814 9.99 6.31903 8.958 7.03938 8.096C7.28488 7.802 7.5708 7.527 7.8941 7.28ZM5.85732 8C5.25937 8.88927 4.93636 9.93182 4.92783 11H1.89691C1.89691 10.74 2.0626 9.97 2.66474 9.276C3.21536 8.64 4.17212 8.02 5.85732 8.001V8ZM2.40206 3.5C2.40206 2.70435 2.72139 1.94129 3.2898 1.37868C3.85821 0.816071 4.62914 0.5 5.43299 0.5C6.23684 0.5 7.00777 0.816071 7.57618 1.37868C8.14459 1.94129 8.46392 2.70435 8.46392 3.5C8.46392 4.29565 8.14459 5.05871 7.57618 5.62132C7.00777 6.18393 6.23684 6.5 5.43299 6.5C4.62914 6.5 3.85821 6.18393 3.2898 5.62132C2.72139 5.05871 2.40206 4.29565 2.40206 3.5ZM5.43299 1.5C4.89709 1.5 4.38313 1.71071 4.00419 2.08579C3.62526 2.46086 3.41237 2.96957 3.41237 3.5C3.41237 4.03043 3.62526 4.53914 4.00419 4.91421C4.38313 5.28929 4.89709 5.5 5.43299 5.5C5.96889 5.5 6.48284 5.28929 6.86178 4.91421C7.24072 4.53914 7.45361 4.03043 7.45361 3.5C7.45361 2.96957 7.24072 2.46086 6.86178 2.08579C6.48284 1.71071 5.96889 1.5 5.43299 1.5Z" fill="#69293A"/>
</svg>
