<?xml version="1.0" encoding="UTF-8"?>
<svg version="1.1" xmlns="http://www.w3.org/2000/svg" width="512" height="512">
<path d="M0 0 C96.36 0 192.72 0 292 0 C292 34.98 292 69.96 292 106 C275.97284018 97.98642009 266.68342368 85.01587985 257.75 69.9375 C252.20066424 60.78950407 246.43170348 56.67208613 236 54 C228.88885179 52.85965371 221.89554941 55.06963373 216 59 C212.4720403 58.70220797 210.84069 57.17003358 208.46875 54.65625 C207.82292969 53.98722656 207.17710937 53.31820312 206.51171875 52.62890625 C205.17057292 51.20963542 203.82942708 49.79036458 202.48828125 48.37109375 C201.84246094 47.70207031 201.19664062 47.03304687 200.53125 46.34375 C199.94923828 45.72693359 199.36722656 45.11011719 198.76757812 44.47460938 C196.80367735 42.83621702 195.52439554 42.30976544 193 42 C190.71281768 42.85152205 190.71281768 42.85152205 188.5 44.25 C187.7471875 44.68828125 186.994375 45.1265625 186.21875 45.578125 C183.95775278 46.94917677 183.95775278 46.94917677 182.00390625 48.75 C180 50 180 50 177.74609375 49.671875 C176.98425781 49.36765625 176.22242188 49.0634375 175.4375 48.75 C174.67308594 48.45609375 173.90867188 48.1621875 173.12109375 47.859375 C172.42113281 47.57578125 171.72117188 47.2921875 171 47 C170.01 46.67 169.02 46.34 168 46 C167.19661327 43.33287421 166.55460855 40.78149192 166 38.0625 C165.04840923 32.14039277 165.04840923 32.14039277 161 28 C156.73348883 27.61338501 152.45788971 27.67083133 148.17602539 27.68432617 C146.0732022 27.68748393 143.97178969 27.66402872 141.86914062 27.63867188 C140.5286476 27.63639848 139.18815081 27.63569557 137.84765625 27.63671875 C136.0224646 27.63224731 136.0224646 27.63224731 134.16040039 27.62768555 C130.75756077 28.02856082 129.35966244 28.55189925 127 31 C126.23488813 34.24656955 126.23488813 34.24656955 125.875 37.875 C124.66367574 44.37577351 124.66367574 44.37577351 121.765625 47.1015625 C115.4989972 50.42027959 115.4989972 50.42027959 111.4921875 49.296875 C107.9819864 47.47024998 104.76718963 45.27264793 101.5 43.046875 C99.05915093 41.72029349 99.05915093 41.72029349 96.64770508 42.66210938 C91.49449143 45.26603845 87.73779871 49.70828849 83.6875 53.75 C82.75615234 54.64460938 81.82480469 55.53921875 80.86523438 56.4609375 C79.98544922 57.33492187 79.10566406 58.20890625 78.19921875 59.109375 C77.39315186 59.90311523 76.58708496 60.69685547 75.7565918 61.51464844 C73.57327227 64.60376488 73.52726423 66.29120755 74 70 C75.60626585 72.73805037 75.60626585 72.73805037 77.6875 75.3125 C81.03849646 80.24478997 81.03849646 80.24478997 80.8671875 83.60546875 C79.67689092 87.14746779 78.07373553 89.88939671 76 93 C72.45188489 93.91011131 68.89858828 94.46445136 65.28515625 95.05859375 C61.52213759 96.13693798 60.86731633 96.66436952 59 100 C58.55492957 103.12600728 58.55492957 103.12600728 58.63671875 106.59375 C58.63736328 107.87121094 58.63800781 109.14867188 58.63867188 110.46484375 C58.64697021 111.12726074 58.65526855 111.78967773 58.66381836 112.47216797 C58.6874249 114.4935696 58.68437274 116.51365159 58.67773438 118.53515625 C58.30904537 126.15294105 58.30904537 126.15294105 61 133 C63.66049645 133.71044026 66.17328743 134.23398226 68.875 134.6875 C76.24472648 136.19407697 76.24472648 136.19407697 78.98046875 139.11328125 C80.38859868 142.2193007 81.17461631 144.59488442 80.75 148.01171875 C79.53053603 151.24456854 77.35959208 153.75931108 75.27734375 156.48828125 C73.54396982 159.89671989 73.64723548 162.20670517 74 166 C75.68498522 168.71970441 75.68498522 168.71970441 78.1640625 171.0234375 C79.03933594 171.89871094 79.91460937 172.77398437 80.81640625 173.67578125 C81.74324219 174.56652344 82.67007813 175.45726562 83.625 176.375 C84.52863281 177.28894531 85.43226562 178.20289063 86.36328125 179.14453125 C92.16415911 185.08399655 92.16415911 185.08399655 100 187 C102.86147174 185.58086896 102.86147174 185.58086896 105.5 183.5 C110.21836346 179.97478592 110.21836346 179.97478592 113.90625 180.09375 C114.9271875 180.3928125 115.948125 180.691875 117 181 C118.23105469 181.34804687 119.46210938 181.69609375 120.73046875 182.0546875 C124.47638505 184.28344057 124.47638505 184.28344057 125.48828125 187.7578125 C125.79327134 189.20750567 126.06728937 190.66400685 126.3125 192.125 C126.82091064 194.77057575 127.38071817 197.37612345 128 200 C131.06594594 201.53297297 134.27111853 201.12131455 137.6328125 201.09765625 C138.38464813 201.0962413 139.13648376 201.09482635 139.91110229 201.09336853 C142.3157751 201.08776465 144.72035527 201.07521157 147.125 201.0625 C148.75390491 201.0574855 150.38281127 201.0529225 152.01171875 201.04882812 C156.00784827 201.03779397 160.00390842 201.02052679 164 201 C164.21462891 199.73559082 164.42925781 198.47118164 164.65039062 197.16845703 C166.73923765 185.23724067 166.73923765 185.23724067 170.09375 181.9453125 C174.35206374 180.00068256 177.47959977 179.63749318 182 181 C184.28316529 182.49252855 186.38286072 184.13120282 188.5234375 185.8203125 C191.18800583 187.08955483 193.06429705 187.46936669 195.98388672 186.89111328 C200.77768678 184.77227455 204.27618825 180.57286161 207.875 176.875 C208.74125 176.03195313 209.6075 175.18890625 210.5 174.3203125 C214.05719957 170.72965964 216.63913236 168.05526447 218.2890625 163.23046875 C217.93936295 159.32233995 216.85476316 157.54850441 214.5 154.4375 C210.97572079 149.76783005 210.97572079 149.76783005 211.09375 146.03515625 C213.52709618 137.88554427 213.52709618 137.88554427 216.67626953 135.9921875 C221.46224182 134.05094154 226.81366863 132.65930118 232 133 C235.36823444 134.90517185 237.14825564 136.99876162 239.5703125 140.00390625 C251.14315732 154.27460075 270.13277333 162.13397476 287 168 C288.65 168.66 290.3 169.32 292 170 C292 187.49 292 204.98 292 223 C195.64 223 99.28 223 0 223 C0 149.41 0 75.82 0 0 Z " fill="#000000" transform="translate(11,18)"/>
<path d="M0 0 C6.21704101 4.10060152 9.42342393 9.68418845 13.0625 16 C23.71857265 34.33383929 39.08861131 49.00654726 59.875 54.875 C78.9267567 58.57886522 98.66066385 55.63506906 117.0625 50.1875 C125.25927008 47.87326996 131.52723037 47.82244679 139.125 51.9375 C140.73348652 52.93053666 142.33840519 53.92940949 143.9375 54.9375 C143.23897641 70.2718821 141.62728346 85.49332767 140.01879883 100.75463867 C139.67359582 104.04302584 139.33458612 107.33201006 138.99609375 110.62109375 C138.83674599 112.10421303 138.83674599 112.10421303 138.67417908 113.61729431 C136.8069153 125.76411853 136.8069153 125.76411853 140.7109375 136.74609375 C141.2884375 137.51244141 141.8659375 138.27878906 142.4609375 139.06835938 C143.37746094 140.21014648 143.37746094 140.21014648 144.3125 141.375 C144.91578125 142.16326172 145.5190625 142.95152344 146.140625 143.76367188 C147.25511267 145.21869745 148.379483 146.66624927 149.51708984 148.10327148 C150.72569327 149.66398609 151.84253919 151.29505878 152.9375 152.9375 C154.58605619 150.8860812 156.19724722 148.81901092 157.7734375 146.7109375 C159.9375 143.9375 159.9375 143.9375 162.4765625 141.2890625 C166.75244173 136.35128246 169.30743599 132.51320633 168.97680664 125.92797852 C168.79023861 124.01339057 168.57903774 122.1010966 168.34765625 120.19140625 C168.2409964 119.15081055 168.13433655 118.11021484 168.02444458 117.03808594 C167.79566579 114.81376401 167.55763084 112.59037782 167.31112671 110.36795044 C166.81422394 105.8056419 166.39270245 101.23757376 165.96931458 96.66795349 C165.43484218 90.92275016 164.87128417 85.18038008 164.3125 79.4375 C164.08058366 77.04168075 163.84881219 74.64584747 163.6171875 72.25 C163.0589523 66.47900478 162.49896492 60.70818184 161.9375 54.9375 C163.8797021 53.74417206 165.84235038 52.58409978 167.8125 51.4375 C169.44832031 50.46296875 169.44832031 50.46296875 171.1171875 49.46875 C178.54959069 45.91867932 186.67221726 48.00203982 194.171875 50.31640625 C195.01236389 50.56615707 195.85285278 50.8159079 196.71881104 51.07322693 C198.48546722 51.60206676 200.25009421 52.13772967 202.01269531 52.67993164 C204.66177875 53.49211412 207.3180965 54.27579627 209.9765625 55.05664062 C239.54053937 63.90269906 239.54053937 63.90269906 246.328125 74.0078125 C250.46976987 83.91010888 251.25983597 93.98762053 251.5625 104.625 C251.60117187 105.66205078 251.63984375 106.69910156 251.6796875 107.76757812 C252.33594952 127.6077852 251.90809295 147.42806991 251.13793945 167.2578125 C250.99929893 170.83056641 250.86728118 174.4035193 250.73632812 177.9765625 C250.36029276 188.09084884 249.96255644 198.2045183 249.44140625 208.3125 C249.39017357 209.37970779 249.39017357 209.37970779 249.33790588 210.46847534 C248.86744851 219.02299911 246.89954473 224.957748 240.9453125 231.2109375 C235.89975627 235.54972321 230.69699374 237.02816978 224.140625 237.53515625 C223.16254883 237.61386963 222.18447266 237.69258301 221.17675781 237.77368164 C220.43780273 237.8277417 219.69884766 237.88180176 218.9375 237.9375 C218.93603344 237.27120197 218.93456688 236.60490395 218.93305588 235.91841507 C218.89601411 219.71049138 218.83703464 203.50281141 218.75359726 187.29506302 C218.71377737 179.45712182 218.68139995 171.61928146 218.66650391 163.78125 C218.65350258 156.95009726 218.62657713 150.11916611 218.58288693 143.28813815 C218.56023753 139.67065669 218.54459137 136.05344886 218.54561615 132.4358902 C218.54649903 128.3986774 218.51629747 124.36227413 218.48339844 120.32519531 C218.4884288 119.12398041 218.49345917 117.9227655 218.49864197 116.68515015 C218.48472916 115.58581146 218.47081635 114.48647278 218.45648193 113.3538208 C218.45279476 112.39884327 218.44910759 111.44386574 218.44530869 110.45994949 C217.78388016 107.17442074 216.57413424 105.94975386 213.9375 103.9375 C210.76712329 103.92379873 210.76712329 103.92379873 207.9375 104.9375 C206.25768593 108.29712814 206.75660056 112.09663064 206.73217773 115.79345703 C206.72214501 116.72544355 206.71211229 117.65743008 206.70177555 118.61765862 C206.67031782 121.6435177 206.64558944 124.66938986 206.62109375 127.6953125 C206.60269702 129.55981887 206.58386071 131.42432097 206.5645752 133.28881836 C206.496048 140.21332816 206.43604621 147.13792021 206.375 154.0625 C206.230625 169.53125 206.08625 185 205.9375 200.9375 C168.9775 200.9375 132.0175 200.9375 93.9375 200.9375 C93.625 152.25 93.625 152.25 93.54956055 136.8840332 C93.51299065 132.3335629 93.51299065 132.3335629 93.4724884 127.78312683 C93.45635224 125.75838258 93.4460548 123.73358662 93.44038391 121.70878601 C93.43064873 118.63931694 93.40231488 115.57052261 93.36987305 112.5012207 C93.37129901 111.60111173 93.37272497 110.70100275 93.37419415 109.77361774 C93.30266881 105.03677814 93.08435358 101.74028361 89.9375 97.9375 C84.40980378 94.8020718 78.99369939 94.27631521 72.75 93.625 C48.61867561 90.65579879 28.240016 81.96584651 9.9375 65.9375 C9.13054687 65.23238281 8.32359375 64.52726562 7.4921875 63.80078125 C-4.44185225 52.57251804 -22.10728426 31.63312677 -23.21484375 14.59375 C-22.65690895 8.99411346 -21.36237587 5.86347362 -17.0625 1.9375 C-11.23508728 -1.29995151 -6.3636289 -2.20778962 0 0 Z " fill="#000000" transform="translate(250.0625,85.0625)"/>
<path d="M0 0 C1.21538405 0.00138269 1.21538405 0.00138269 2.45532131 0.00279331 C3.38225292 0.00141865 4.30918453 0.00004398 5.26420498 -0.00137234 C6.80168392 0.00402058 6.80168392 0.00402058 8.37022305 0.00952244 C9.44326183 0.00937641 10.51630062 0.00923038 11.62185574 0.00907993 C15.18765656 0.00977959 18.75340589 0.01757445 22.31919765 0.02539158 C24.78399534 0.02725557 27.24879339 0.02867956 29.71359158 0.0296793 C36.21558045 0.03350596 42.71754716 0.0433375 49.21952724 0.05438328 C55.84844957 0.06513035 62.47737833 0.06917624 69.10630703 0.0742197 C82.12389464 0.08495964 95.14146685 0.10184686 108.1590414 0.12304783 C108.88514595 4.81479995 109.3533877 9.42905185 109.58300686 14.17021275 C109.6165297 14.84403565 109.65005255 15.51785855 109.68459123 16.21210033 C109.79517888 18.4513993 109.90107355 20.69089421 110.0069418 22.93042088 C110.08563644 24.54431547 110.16460799 26.15819659 110.2438345 27.77206516 C110.45767301 32.14667221 110.66728424 36.52147212 110.87586808 40.8963325 C111.0510542 44.56320713 111.22823914 48.22998412 111.40539354 51.8967641 C111.82413349 60.56522752 112.2393721 69.23385388 112.65244961 77.90258884 C113.07641953 86.79861007 113.50628319 95.6943324 113.93911654 104.58992642 C114.3120513 112.2589404 114.68120704 119.92813022 115.0474481 127.59746677 C115.26552327 132.16331202 115.48494809 136.72908125 115.70803928 141.29468441 C115.91839033 145.60289325 116.1239475 149.91130684 116.32612324 154.21990681 C116.40025719 155.78383473 116.47594977 157.34768987 116.55349636 158.91145229 C117.13537323 170.67530003 117.1590414 182.32039046 117.1590414 194.12304783 C101.3190414 194.12304783 85.4790414 194.12304783 69.1590414 194.12304783 C68.25674972 191.41617278 67.90120712 189.30764498 67.64137173 186.49255466 C67.55177685 185.54196674 67.46218197 184.59137882 67.36987209 183.61198521 C67.27532238 182.57085072 67.18077267 181.52971622 67.08335781 180.4570322 C66.98074139 179.35925953 66.87812496 178.26148685 66.77239895 177.13044834 C66.54947941 174.743901 66.32802569 172.35721639 66.10785198 169.97041416 C65.75874862 166.19674296 65.40366674 162.42368184 65.04658413 158.65075779 C64.03142185 147.92252218 63.01983866 137.19399673 62.03013515 126.46337986 C61.42504481 119.90356832 60.80591418 113.34517321 60.17873669 106.78743076 C59.94183432 104.28397603 59.70985395 101.7800506 59.48282146 99.2756815 C59.16531687 95.77885705 58.83136491 92.28397215 58.49351406 88.78906345 C58.35776218 87.22736172 58.35776218 87.22736172 58.21926785 85.63411045 C58.07641605 84.20822857 58.07641605 84.20822857 57.93067837 82.75354099 C57.85362478 81.92690197 57.7765712 81.10026295 57.69718266 80.24857426 C57.06331848 77.74496568 56.11739521 76.75606637 54.1590414 75.12304783 C52.5090414 75.78304783 50.8590414 76.44304783 49.1590414 77.12304783 C47.39878402 89.33879119 46.1833503 101.58348007 45.03013515 113.86914158 C44.83388851 115.93606794 44.63735504 118.00296709 44.4405508 120.06984043 C43.9272659 125.4668457 43.41714768 130.86414503 42.90794277 136.2615366 C42.09043014 144.92233146 41.26854114 153.58271101 40.44567966 162.24299908 C40.16033918 165.25176785 39.87667599 168.26069123 39.59323025 171.26963902 C39.41786849 173.1210891 39.24246096 174.97253484 39.06700039 176.82397556 C38.98958111 177.6506171 38.91216183 178.47725864 38.83239651 179.32894993 C38.72107891 180.49932552 38.72107891 180.49932552 38.60751247 181.69334507 C38.54466281 182.35967677 38.48181314 183.02600847 38.41705894 183.71253204 C38.04504051 187.18809543 37.5925945 190.65462307 37.1590414 194.12304783 C20.9890414 194.12304783 4.8190414 194.12304783 -11.8409586 194.12304783 C-11.14686005 172.43597371 -10.21048002 150.77114761 -9.15706348 129.09918404 C-9.02680099 126.41704234 -8.89709489 123.73487429 -8.76756382 121.05269718 C-8.31466714 111.67565241 -7.85958739 102.29871648 -7.40248203 92.92187595 C-6.97738916 84.2004133 -6.55745239 75.47871199 -6.13973236 66.7568934 C-5.77872411 59.2241318 -5.41410108 51.69155083 -5.0466404 44.15910125 C-4.82808754 39.67767695 -4.61103525 35.19619217 -4.39769077 30.71451664 C-4.19828162 26.527962 -3.99440592 22.34164929 -3.78698444 18.1554842 C-3.7115626 16.61758066 -3.63777853 15.07959585 -3.56570911 13.54153156 C-3.46756085 11.45219007 -3.36364827 9.3632155 -3.25819492 7.27423191 C-3.20142078 6.10342705 -3.14464664 4.93262218 -3.08615208 3.72633839 C-2.75251111 0.18397509 -2.75251111 0.18397509 0 0 Z " fill="#000000" transform="translate(346.8409585952759,298.8769521713257)"/>
<path d="M0 0 C7.21035302 5.09632282 11.56961317 12.77675833 13.3125 21.375 C14.31934346 30.10097663 12.69023686 38.41326314 7.5625 45.625 C2.53110556 51.7744821 -2.37382937 55.40245925 -9.6875 58.375 C-8.74390625 58.59414063 -7.8003125 58.81328125 -6.828125 59.0390625 C5.75848231 62.09260837 16.47331528 66.73571585 26.3125 75.375 C26.98925781 75.95765625 27.66601562 76.5403125 28.36328125 77.140625 C40.89347549 88.72193074 46.46941362 103.78722256 48.3125 120.375 C3.7625 120.375 -40.7875 120.375 -86.6875 120.375 C-83.47177989 99.47281929 -76.05189149 83.01736818 -58.6875 70.15234375 C-49.48017828 64.11568061 -39.53196502 60.32618215 -28.6875 58.375 C-29.32816406 58.09527344 -29.96882813 57.81554687 -30.62890625 57.52734375 C-40.80627006 52.81026455 -46.59058488 46.90508762 -50.6875 36.375 C-53.18548665 26.12848149 -51.51400007 17.29857357 -46.4375 8.11328125 C-41.96545931 1.44333421 -35.58026428 -2.06789429 -28.25 -5 C-17.729689 -6.8456686 -9.14236328 -5.4945756 0 0 Z " fill="#000000" transform="translate(96.6875,373.625)"/>
<path d="M0 0 C2.05144275 1.70569397 3.89056208 3.47295371 5.7109375 5.421875 C6.45150391 6.20691406 6.45150391 6.20691406 7.20703125 7.0078125 C12.41452326 13.3433369 14.08752661 21.87188734 13.7734375 29.921875 C12.50750934 39.24126101 8.05761574 47.2929064 0.66796875 53.0859375 C-2.97418243 55.57219639 -5.82803763 57.421875 -10.2890625 57.421875 C-10.2890625 58.081875 -10.2890625 58.741875 -10.2890625 59.421875 C-9.71800781 59.43605469 -9.14695312 59.45023437 -8.55859375 59.46484375 C6.61270498 60.35727309 20.89764106 68.50440234 31.1640625 79.55859375 C40.99560918 91.40113862 47.7109375 104.8456702 47.7109375 120.421875 C3.4909375 120.421875 -40.7290625 120.421875 -86.2890625 120.421875 C-84.54044962 102.93574621 -78.70019041 89.89547503 -66.2890625 77.421875 C-65.62390625 76.72191406 -64.95875 76.02195312 -64.2734375 75.30078125 C-55.69760797 66.90497867 -42.46527634 59.80421724 -30.2890625 59.296875 C-29.6290625 59.338125 -28.9690625 59.379375 -28.2890625 59.421875 C-28.2890625 58.761875 -28.2890625 58.101875 -28.2890625 57.421875 C-28.9903125 57.339375 -29.6915625 57.256875 -30.4140625 57.171875 C-38.59498695 55.0377208 -43.85484138 48.43642121 -48.17578125 41.58203125 C-52.12554155 33.91811039 -52.44853146 25.76792947 -50.63671875 17.4140625 C-47.72801828 8.45077093 -42.43716496 2.03158193 -34.2421875 -2.61328125 C-23.30829899 -8.01462218 -10.0112197 -6.90193304 0 0 Z " fill="#000000" transform="translate(255.2890625,373.578125)"/>
<path d="M0 0 C1.48831242 0.00667405 2.97660807 0.01863442 4.46484375 0.03515625 C5.22345703 0.03966797 5.98207031 0.04417969 6.76367188 0.04882812 C8.64326246 0.06064945 10.52281274 0.07858547 12.40234375 0.09765625 C12.69625 1.54398438 12.69625 1.54398438 12.99609375 3.01953125 C14.39596925 9.91186006 14.39596925 9.91186006 17.9921875 15.7421875 C20.09233067 16.78559901 22.15367818 17.42836839 24.40234375 18.09765625 C25.45808594 18.55785156 26.51382813 19.01804687 27.6015625 19.4921875 C33.88744378 22.50338041 33.88744378 22.50338041 40.60546875 22.3671875 C43.56187413 21.12844889 43.56187413 21.12844889 46.52734375 18.91015625 C49.40234375 17.09765625 49.40234375 17.09765625 51.28515625 17.19921875 C54.23566401 18.45127924 55.94414039 20.35453215 58.15234375 22.66015625 C59.35117187 23.89958984 59.35117187 23.89958984 60.57421875 25.1640625 C61.1775 25.80214844 61.78078125 26.44023438 62.40234375 27.09765625 C61.00781051 30.79537788 59.35751193 33.83335138 57.109375 37.05859375 C54.75210195 43.85691714 59.52746066 52.34717551 62.37109375 58.48828125 C64.37216262 62.37795582 66.52041414 64.06677189 70.46875 65.90625 C74.43871989 68.35239307 76.7172989 72.8531304 78.40234375 77.09765625 C78.55859375 80.4140625 78.55859375 80.4140625 78.40234375 83.09765625 C77.57089844 83.27941406 76.73945313 83.46117187 75.8828125 83.6484375 C74.79613281 83.89980469 73.70945313 84.15117187 72.58984375 84.41015625 C71.51089844 84.65378906 70.43195313 84.89742188 69.3203125 85.1484375 C65.77735104 86.30096713 64.21272502 87.64562412 62.40332031 90.88769531 C61.46856806 93.03412414 60.55042861 95.18560011 59.65234375 97.34765625 C59.15927734 98.45560547 59.15927734 98.45560547 58.65625 99.5859375 C56.61581213 104.46749139 55.96514172 107.82144159 57.40234375 113.09765625 C58.54696464 115.17468866 58.54696464 115.17468866 60.02734375 116.78515625 C62.42117714 119.55591921 62.42117714 119.55591921 62.3359375 122.0078125 C61.03736445 124.91466013 59.13125034 126.65306965 56.83984375 128.84765625 C55.60041016 130.04648437 55.60041016 130.04648437 54.3359375 131.26953125 C53.69785156 131.8728125 53.05976563 132.47609375 52.40234375 133.09765625 C48.70462212 131.70312301 45.66664862 130.05282443 42.44140625 127.8046875 C36.93855832 125.89661188 30.79343853 128.83414303 25.65234375 130.91015625 C24.66427734 131.28237305 24.66427734 131.28237305 23.65625 131.66210938 C19.83150358 133.18657727 17.36252589 134.42314532 15.40234375 138.09765625 C14.40946771 140.89738975 14.40946771 140.89738975 13.71484375 143.84765625 C13.28171875 145.58015625 12.84859375 147.31265625 12.40234375 149.09765625 C7.12234375 149.09765625 1.84234375 149.09765625 -3.59765625 149.09765625 C-5.59765625 143.09765625 -5.59765625 143.09765625 -5.97265625 139.59765625 C-8.63289331 133.86791489 -13.99152429 132.47252601 -19.59765625 130.09765625 C-20.30277344 129.75476563 -21.00789063 129.411875 -21.734375 129.05859375 C-25.53522388 127.2307698 -28.42514671 126.34660453 -32.59765625 127.09765625 C-35.75760837 128.89072118 -38.68817774 130.92524563 -41.59765625 133.09765625 C-44.91979095 131.63531705 -47.29079608 129.78959019 -49.91015625 127.28515625 C-50.98716797 126.28548828 -50.98716797 126.28548828 -52.0859375 125.265625 C-53.59765625 123.09765625 -53.59765625 123.09765625 -53.4921875 120.5859375 C-52.32740822 117.34591828 -50.57488407 114.92280817 -48.55859375 112.16015625 C-46.75914687 108.29792881 -48.66131648 104.80621221 -49.98046875 100.99609375 C-50.55589839 99.48625084 -51.13677484 97.97847426 -51.72265625 96.47265625 C-51.99335937 95.70953125 -52.2640625 94.94640625 -52.54296875 94.16015625 C-54.19122653 89.96592886 -54.99885606 88.43452355 -59.0625 86.1484375 C-60.81240234 85.62830078 -60.81240234 85.62830078 -62.59765625 85.09765625 C-63.40074219 84.85660156 -64.20382813 84.61554688 -65.03125 84.3671875 C-66.02318359 84.14095703 -66.02318359 84.14095703 -67.03515625 83.91015625 C-68.21078125 83.64203125 -69.38640625 83.37390625 -70.59765625 83.09765625 C-70.59765625 77.81765625 -70.59765625 72.53765625 -70.59765625 67.09765625 C-66.00637607 65.56722952 -62.24426279 64.65742172 -57.55078125 64.05078125 C-55.31318206 63.2270984 -55.31318206 63.2270984 -54.53125 60.4921875 C-54.22316406 59.37199219 -53.91507813 58.25179687 -53.59765625 57.09765625 C-53.10195501 55.85956833 -52.58671022 54.62916996 -52.0546875 53.40625 C-51.78591797 52.77138672 -51.51714844 52.13652344 -51.24023438 51.48242188 C-50.68362604 50.1766842 -50.11840012 48.87458877 -49.54492188 47.57617188 C-47.91773915 43.68439421 -47.10337918 41.11482903 -48.59765625 37.09765625 C-49.8265541 35.2151726 -51.19609238 33.56693016 -52.63671875 31.84375 C-53.59765625 30.09765625 -53.59765625 30.09765625 -53.515625 28.18359375 C-52.25539689 25.31992647 -50.47856068 23.50727956 -48.28515625 21.28515625 C-47.50527344 20.47433594 -46.72539063 19.66351563 -45.921875 18.828125 C-43.59765625 17.09765625 -43.59765625 17.09765625 -41.5625 17.1640625 C-39.36796493 18.20679388 -37.4753097 19.47314134 -35.47265625 20.84765625 C-32.79835025 22.35960049 -31.26120584 23.14260638 -28.17578125 22.93359375 C-25.53399886 22.16798166 -23.10956827 21.21944485 -20.59765625 20.09765625 C-19.60507813 19.65808594 -18.6125 19.21851562 -17.58984375 18.765625 C-15.66582842 17.89404103 -13.75073518 17.00233488 -11.84765625 16.0859375 C-9.59765625 15.09765625 -9.59765625 15.09765625 -7.59765625 15.09765625 C-7.39269531 14.09863281 -7.18773437 13.09960938 -6.9765625 12.0703125 C-6.70714844 10.77996094 -6.43773437 9.48960938 -6.16015625 8.16015625 C-5.89332031 6.87238281 -5.62648438 5.58460937 -5.3515625 4.2578125 C-4.3640531 0.11845964 -4.3640531 0.11845964 0 0 Z M-24.47265625 49.97265625 C-30.67906396 57.6686018 -34.23047609 66.79078619 -33.91015625 76.80078125 C-32.70181037 85.68212344 -29.79047498 93.57359373 -23.59765625 100.09765625 C-22.73527344 101.01998047 -22.73527344 101.01998047 -21.85546875 101.9609375 C-14.48676862 109.10032123 -5.847396 112.55980765 4.40234375 112.72265625 C15.6038307 112.51851081 24.17064992 108.40710928 32.203125 100.7109375 C40.18167682 91.23020718 42.12797804 81.06723153 41.58154297 69.10546875 C40.7856501 60.18799874 36.07325555 52.35381478 29.5546875 46.4140625 C12.89268557 33.13083631 -9.7054771 33.94601619 -24.47265625 49.97265625 Z " fill="#000000" transform="translate(152.59765625,57.90234375)"/>
<path d="M0 0 C96.36 0 192.72 0 292 0 C292 5.28 292 10.56 292 16 C246.13 16 200.26 16 153 16 C153 26.89 153 37.78 153 49 C162.31946384 48.80262654 162.31946384 48.80262654 171.63745117 48.54956055 C172.80252197 48.53707275 173.96759277 48.52458496 175.16796875 48.51171875 C176.35672607 48.48553467 177.5454834 48.45935059 178.77026367 48.43237305 C183.62196227 49.28506027 185.59726829 52.08418042 188.40966797 55.92529297 C189.58490047 57.89779642 190.74063947 59.87867472 191.875 61.875 C192.29007813 62.55691406 192.70515625 63.23882812 193.1328125 63.94140625 C195.82726775 68.65670294 196.45078534 71.54586833 195 77 C193.875 78.9375 193.875 78.9375 192 80 C188.5625 80.4375 188.5625 80.4375 185 80 C181.86789057 77.35254967 179.82624099 74.38783198 177.75 70.875 C177.22921875 70.00617188 176.7084375 69.13734375 176.171875 68.2421875 C175 66 175 66 175 64 C167.55840596 63.85223996 160.11905314 63.76986272 152.67590237 63.76940536 C149.21875065 63.76717093 145.76473882 63.74299581 142.30834961 63.66748047 C138.32855579 63.58151508 134.35183339 63.59311921 130.37109375 63.609375 C129.13854355 63.56931335 127.90599335 63.52925171 126.63609314 63.48797607 C123.04645973 63.54709135 120.35645897 63.71182326 117 65 C114.5188435 67.89609507 112.95517248 70.67638203 111.35414124 74.13092041 C110.11732417 76.75142002 109.29928758 78.28510679 107 80 C103.06905293 80.50030235 100.8994213 80.5996142 97.5625 78.375 C95.46839377 75.19195853 95.55791331 73.80107874 96 70 C97.3529479 66.78863961 99.05884578 63.81980967 100.8125 60.8125 C101.49022461 59.60303711 101.49022461 59.60303711 102.18164062 58.36914062 C106.48565463 50.81041239 106.48565463 50.81041239 109 49 C112.00268555 48.65942383 112.00268555 48.65942383 115.63671875 48.70703125 C116.80678467 48.71452393 117.97685059 48.7220166 119.18237305 48.72973633 C121.41241089 48.77070435 121.41241089 48.77070435 123.6875 48.8125 C130.7721875 48.9053125 130.7721875 48.9053125 138 49 C138 38.11 138 27.22 138 16 C92.46 16 46.92 16 0 16 C0 10.72 0 5.44 0 0 Z " fill="#000000" transform="translate(11,254)"/>
<path d="M0 0 C1.23546142 1.03083013 2.44563057 2.09293916 3.625 3.1875 C4.16769531 3.68894531 4.71039063 4.19039062 5.26953125 4.70703125 C14.99779406 14.82935028 16.02437988 28.08233573 15.83203125 41.32421875 C15.35915905 56.32558153 9.4556566 70.23862762 -0.9765625 81.0625 C-8.75490292 87.95405894 -17.01932603 91.74647985 -27.4453125 91.4921875 C-38.07283519 90.38692514 -46.48946444 84.84443591 -53.37890625 76.8671875 C-63.82889288 62.82854456 -68.32895395 44.92576538 -65.87109375 27.64453125 C-64.50840896 20.37947465 -62.62998144 14.26084958 -58.375 8.1875 C-57.71177734 7.23423828 -57.71177734 7.23423828 -57.03515625 6.26171875 C-44.28437741 -10.23305609 -16.30600963 -11.45412729 0 0 Z " fill="#000000" transform="translate(428.375,29.8125)"/>
</svg>
