<svg width="50" height="42" viewBox="0 0 50 42" fill="none" xmlns="http://www.w3.org/2000/svg">
<path d="M3.125 6.83746C5.89062 5.68121 9.85625 4.43434 13.7125 4.04684C17.8687 3.62809 21.3937 4.24371 23.4375 6.39684V36.8531C20.5156 35.1968 16.8125 34.9687 13.3969 35.3125C9.70938 35.6875 5.99062 36.7531 3.125 37.8468V6.83746ZM26.5625 6.39684C28.6063 4.24371 32.1313 3.62809 36.2875 4.04684C40.1438 4.43434 44.1094 5.68121 46.875 6.83746V37.8468C44.0062 36.7531 40.2906 35.6843 36.6031 35.3156C33.1844 34.9687 29.4844 35.1937 26.5625 36.8531V6.39684ZM25 3.57184C21.9219 0.924963 17.4594 0.531213 13.3969 0.937463C8.66563 1.41559 3.89062 3.03746 0.915625 4.39059C0.642653 4.51474 0.411173 4.71482 0.248816 4.96694C0.0864584 5.21907 8.30357e-05 5.51259 0 5.81246L0 40.1875C7.23812e-05 40.4489 0.0657411 40.7061 0.190991 40.9356C0.316241 41.1651 0.497068 41.3595 0.716909 41.5009C0.93675 41.6424 1.18858 41.7265 1.44932 41.7454C1.71007 41.7644 1.9714 41.7176 2.20938 41.6093C4.96563 40.3593 9.40625 38.8562 13.7094 38.4218C18.1125 37.9781 21.8031 38.6937 23.7812 41.1625C23.9277 41.345 24.1132 41.4922 24.3241 41.5934C24.5351 41.6946 24.766 41.7472 25 41.7472C25.234 41.7472 25.4649 41.6946 25.6759 41.5934C25.8868 41.4922 26.0723 41.345 26.2188 41.1625C28.1969 38.6937 31.8875 37.9781 36.2875 38.4218C40.5938 38.8562 45.0375 40.3593 47.7906 41.6093C48.0286 41.7176 48.2899 41.7644 48.5507 41.7454C48.8114 41.7265 49.0632 41.6424 49.2831 41.5009C49.5029 41.3595 49.6838 41.1651 49.809 40.9356C49.9343 40.7061 49.9999 40.4489 50 40.1875V5.81246C49.9999 5.51259 49.9135 5.21907 49.7512 4.96694C49.5888 4.71482 49.3573 4.51474 49.0844 4.39059C46.1094 3.03746 41.3344 1.41559 36.6031 0.937463C32.5406 0.528088 28.0781 0.924963 25 3.57184Z" fill="white"/>
</svg>
