<svg width="16" height="14" viewBox="0 0 16 14" fill="none" xmlns="http://www.w3.org/2000/svg">
<path fill-rule="evenodd" clip-rule="evenodd" d="M11.5 14C11.6326 14 11.7598 13.9473 11.8536 13.8536C11.9473 13.7598 12 13.6326 12 13.5V1.70701L15.146 4.85401C15.2399 4.9479 15.3672 5.00064 15.5 5.00064C15.6328 5.00064 15.7601 4.9479 15.854 4.85401C15.9479 4.76012 16.0006 4.63278 16.0006 4.50001C16.0006 4.36723 15.9479 4.2399 15.854 4.14601L11.854 0.146009C11.8076 0.0994456 11.7524 0.0625027 11.6916 0.0372962C11.6309 0.0120898 11.5658 -0.00088501 11.5 -0.00088501C11.4342 -0.00088501 11.3691 0.0120898 11.3084 0.0372962C11.2476 0.0625027 11.1925 0.0994456 11.146 0.146009L7.14601 4.14601C7.05212 4.2399 6.99937 4.36723 6.99937 4.50001C6.99937 4.63278 7.05212 4.76012 7.14601 4.85401C7.23989 4.9479 7.36723 5.00064 7.50001 5.00064C7.63278 5.00064 7.76012 4.9479 7.85401 4.85401L11 1.70701V13.5C11 13.6326 11.0527 13.7598 11.1465 13.8536C11.2402 13.9473 11.3674 14 11.5 14ZM4.50001 8.76188e-06C4.63261 8.76188e-06 4.75979 0.0526872 4.85356 0.146455C4.94733 0.240224 5.00001 0.367401 5.00001 0.500009V12.293L8.14601 9.14601C8.23989 9.05212 8.36723 8.99938 8.50001 8.99938C8.63278 8.99938 8.76012 9.05212 8.85401 9.14601C8.94789 9.23989 9.00064 9.36723 9.00064 9.50001C9.00064 9.63278 8.94789 9.76012 8.85401 9.85401L4.85401 13.854C4.80756 13.9006 4.75239 13.9375 4.69164 13.9627C4.63089 13.9879 4.56577 14.0009 4.50001 14.0009C4.43424 14.0009 4.36912 13.9879 4.30837 13.9627C4.24763 13.9375 4.19245 13.9006 4.14601 13.854L0.146006 9.85401C0.0521193 9.76012 -0.000625613 9.63278 -0.00062561 9.50001C-0.000625607 9.36723 0.0521194 9.23989 0.146006 9.14601C0.239893 9.05212 0.36723 8.99938 0.500006 8.99938C0.632782 8.99938 0.760119 9.05212 0.854006 9.14601L4.00001 12.293V0.500009C4.00001 0.367401 4.05268 0.240224 4.14645 0.146455C4.24022 0.0526872 4.3674 8.76188e-06 4.50001 8.76188e-06Z" fill="#69293A"/>
</svg>
